<?xml version="1.0" standalone="no"?>
<!DOCTYPE svg PUBLIC "-//W3C//DTD SVG 1.1//EN" "http://www.w3.org/Graphics/SVG/1.1/DTD/svg11.dtd" >
<!--
2013-9-30: Created.
-->
<svg>
<metadata>
Created by iconfont
</metadata>
<defs>

<font id="iconfont" horiz-adv-x="1024" >
  <font-face
    font-family="iconfont"
    font-weight="500"
    font-stretch="normal"
    units-per-em="1024"
    ascent="896"
    descent="-128"
  />
    <missing-glyph />
    
    <glyph glyph-name="x" unicode="x" horiz-adv-x="1001"
d="M281 543q-27 -1 -53 -1h-83q-18 0 -36.5 -6t-32.5 -18.5t-23 -32t-9 -45.5v-76h912v41q0 16 -0.5 30t-0.5 18q0 13 -5 29t-17 29.5t-31.5 22.5t-49.5 9h-133v-97h-438v97zM955 310v-52q0 -23 0.5 -52t0.5 -58t-10.5 -47.5t-26 -30t-33 -16t-31.5 -4.5q-14 -1 -29.5 -0.5
t-29.5 0.5h-32l-45 128h-439l-44 -128h-29h-34q-20 0 -45 1q-25 0 -41 9.5t-25.5 23t-13.5 29.5t-4 30v167h911zM163 247q-12 0 -21 -8.5t-9 -21.5t9 -21.5t21 -8.5q13 0 22 8.5t9 21.5t-9 21.5t-22 8.5zM316 123q-8 -26 -14 -48q-5 -19 -10.5 -37t-7.5 -25t-3 -15t1 -14.5
t9.5 -10.5t21.5 -4h37h67h81h80h64h36q23 0 34 12t2 38q-5 13 -9.5 30.5t-9.5 34.5q-5 19 -11 39h-368zM336 498v228q0 11 2.5 23t10 21.5t20.5 15.5t34 6h188q31 0 51.5 -14.5t20.5 -52.5v-227h-327z" />
    

    
    <glyph glyph-name="del" unicode="&#58880;" d="M408.502 75.962c23.414 0 42.396 18.979 42.396 42.394v508.722c0 23.411-18.98 42.394-42.396 42.394-23.412 0-42.396-18.981-42.396-42.394v-508.722c0-23.414 18.983-42.394 42.396-42.394zM938.444 796.651h-360.361v42.394c0 23.413-18.98 42.394-42.396 42.394h-42.396c-23.412 0-42.396-18.979-42.396-42.394v-42.394h-360.358c-23.414 0-42.396-18.979-42.396-42.394 0-23.413 18.98-42.394 42.396-42.394h63.593v-678.295c0-46.828 37.963-84.787 84.79-84.787h551.138c46.83 0 84.79 37.959 84.79 84.787v678.295h63.593c23.414 0 42.396 18.979 42.396 42.394-0.001 23.414-18.981 42.394-42.396 42.394zM790.061 75.962c0-23.413-18.98-42.394-42.396-42.394h-466.348c-23.412 0-42.396 18.979-42.396 42.394v635.902h551.138v-635.902zM620.479 75.962c23.414 0 42.396 18.979 42.396 42.394v508.722c0 23.411-18.98 42.394-42.396 42.394-23.414 0-42.396-18.981-42.396-42.394v-508.722c0-23.414 18.981-42.394 42.396-42.394z"  horiz-adv-x="1000" />

    
    <glyph glyph-name="arrowTip" unicode="&#58883;" d="M606.688 39.313l312.5 312.5c24.406 24.406 24.406 63.969 0 88.375l-312.5 312.5c-24.406 24.406-63.969 24.406-88.375 0-24.406-24.406-24.406-63.969 0-88.375l205.813-205.813h-599.125c-34.531 0-62.5-27.969-62.5-62.5s27.969-62.5 62.5-62.5h599.125l-205.813-205.813c-12.188-12.188-18.313-28.188-18.313-44.188s6.094-32 18.313-44.188c24.406-24.406 63.969-24.406 88.375 0z"  horiz-adv-x="1000" />

    
    <glyph glyph-name="dateIcon" unicode="&#58889;" d="M890.127 750.328h-43.389v12.892c0 38.644-31.466 70.234-69.923 70.234h-1.031c-38.458 0-69.923-31.59-69.923-70.234v-12.892h-386.699v12.892c0 38.644-31.465 70.234-69.923 70.234h-1.063c-38.456 0-69.923-31.59-69.923-70.234v-12.892h-43.296c-38.458 0-69.923-31.622-69.923-70.206v-671.446c0-38.645 31.465-70.236 69.923-70.236h755.169c38.458 0 69.923 31.591 69.923 70.236v671.446c0 38.584-31.464 70.206-69.923 70.206zM733.83 763.221c0 23.222 18.792 42.139 41.954 42.139h1.031c23.13 0 41.954-18.917 41.954-42.139v-124.927c0-23.224-18.824-42.14-41.954-42.14h-1.031c-23.162 0-41.954 18.915-41.954 42.14v124.927zM206.223 763.221c0 23.222 18.792 42.139 41.954 42.139h1.063c23.098 0 41.954-18.917 41.954-42.139v-124.927c0-23.224-18.856-42.14-41.954-42.14h-1.063c-23.162 0-41.954 18.915-41.954 42.14l0 124.927zM890.127-5.405h-755.169c-7.585 0-13.985 6.525-13.985 14.080l0 493.676h783.138v-493.676c0-7.555-6.399-14.080-13.984-14.080zM223.755 401.8h129.024v-63.488h-129.024v63.488zM449.035 401.8h128v-63.488h-128v63.488zM673.291 401.8h125.952v-63.488h-125.952v63.488zM223.755 272.776h129.024v-62.464h-129.024v62.464zM449.035 272.776h128v-62.464h-128v62.464zM673.291 272.776h125.952v-62.464h-125.952v62.464zM223.755 146.824h129.024v-65.536h-129.024v65.536zM449.035 146.824h128v-65.536h-128v65.536zM673.291 146.824h125.952v-65.536h-125.952v65.536z"  horiz-adv-x="1024" />

    
    <glyph glyph-name="user" unicode="&#58888;" d="M512.548 212.874c139.923 0 253.655 111.438 253.655 248.353l0 121.413c0 136.906-113.732 248.337-253.655 248.337-139.777 0-253.67-111.432-253.67-248.337l-0-121.413c0-136.915 113.893-248.353 253.67-248.353zM299.141 582.64c0 115.3 95.772 209.005 213.407 209.005 117.782 0 213.553-93.704 213.553-209.005l0-121.413c0-115.309-95.772-209.015-213.553-209.015-117.635 0-213.407 93.706-213.407 209.015l0 121.413zM857.503 239.845l-97.424 26.522c-10.623 2.981-21.701-3.128-24.696-13.56-2.998-10.574 3.286-21.458 13.926-24.28l97.129-26.667c48.48-13.558 73.018-36.050 73.018-66.733v-92.527c0-36.485-30.224-66.137-67.492-66.137h-682.428c-37.268 0-67.493 29.652-67.493 66.137v92.527c0 11.318 0 46.030 72.726 66.733l101.924 27.568c10.772 2.969 17.057 13.705 14.060 24.267-2.981 10.448-14.060 16.544-24.699 13.704l-102.216-27.698c-84.388-23.976-102.057-70.164-102.057-104.573v-92.527c0-58.248 48.331-105.475 107.756-105.475h682.426c59.423 0 107.756 47.227 107.756 105.475v92.527c0.001 34.553-17.671 80.889-102.216 104.717z"  horiz-adv-x="1024" />

    
    <glyph glyph-name="timeIcon" unicode="&#58986;" d="M509.798 872.278c-269.425 0-487.833-218.397-487.833-487.809 0-269.414 218.412-487.814 487.833-487.814 269.427 0 487.839 218.396 487.839 487.814 0 269.412-218.406 487.809-487.839 487.809zM509.798 19.707c-201.471 0-364.777 163.3-364.777 364.766s163.306 364.764 364.777 364.764 364.777-163.298 364.777-364.764-163.3-364.766-364.777-364.766zM659.51 433.197h-95.293v146.835c0 27.908-22.82 50.737-50.737 50.737h-0.005c-27.919 0-50.746-22.828-50.746-50.737v-197.598c0-27.906 22.829-50.727 50.737-50.727h146.047c27.907 0 50.737 22.82 50.737 50.727v0.025c-0.001 27.906-22.83 50.735-50.739 50.735z"  horiz-adv-x="1024" />

    
    <glyph glyph-name="close" unicode="&#59174;" d="M875.114 843.946l-363.114-363.115-363.115 363.115c-26.738 26.738-70.090 26.738-96.831 0-26.739-26.738-26.738-70.091 0-96.831l363.115-363.115-363.115-363.114c-26.738-26.738-26.738-70.092 0-96.832 26.738-26.738 70.092-26.738 96.831 0l363.115 363.115 363.114-363.115c26.738-26.738 70.092-26.738 96.832 0 26.738 26.738 26.738 70.093 0 96.832l-363.115 363.114 363.115 363.115c26.738 26.738 26.738 70.091 0 96.831-26.738 26.738-70.091 26.738-96.832 0z"  horiz-adv-x="1025" />

    
    <glyph glyph-name="leftarrowIcon" unicode="&#59205;" d="M737.621 785.107c-27.69 27.691-72.585 27.691-100.277 0l-350.966-350.967c-27.691-27.691-27.691-72.585 0-100.276l350.967-350.967c27.69-27.692 72.585-27.692 100.275 0 27.692 27.691 27.692 72.585 0 100.276l-300.829 300.83 300.829 300.83c27.692 27.692 27.692 72.585 0 100.277z"  horiz-adv-x="1024" />

    
    <glyph glyph-name="llreservecalendar" unicode="&#58881;" d="M861.956905-146.366164 150.010037-146.366164c-27.125801 0-49.101301 22.426779-49.101301 50.101071L100.908736 630.21477c0 27.666106 21.975501 50.101071 49.101301 50.101071l99.701746 0L249.711783 693.540028c0 29.224602 21.150716 52.91107 47.227628 52.91107l70.88135 0c26.075889 0 47.227628-23.686469 47.227628-52.91107l0-13.223163 198.403722 0L613.452111 693.540028c0 29.224602 21.150716 52.91107 47.242977 52.91107l70.849628 0c26.092261 0 47.241954-23.686469 47.241954-52.91107l0-13.223163 83.169211 0c27.109428 0 49.100278-22.434965 49.100278-50.101071l0-726.480886C911.058207-123.939385 889.066333-146.366164 861.956905-146.366164zM861.457532 630.715167l-95.746668 0 0 0-139.179876 0 0 0-224.544079 0 0 0L262.774287 630.715167l0 0L150.510434 630.715167l0-115.735931 710.947098 0L861.457532 630.715167zM861.457532 465.378561 150.510434 465.378561l0-562.143027 710.947098 0L861.457532 465.378561zM274.172895 250.344067c0 0.031722 0 0.063445 0 0.097214 0 54.783721 50.037626 99.201349 111.763456 99.201349 61.742203 0 111.778806-44.417629 111.778806-99.201349 0-29.80584-15.112186-56.221466-38.539758-74.401524 23.427572-18.181081 38.539758-44.596707 38.539758-74.401524 0-54.783721-50.036603-99.201349-111.778806-99.201349-61.72583 0-111.763456 44.417629-111.763456 99.201349 0 0.031722 0 0.064468 0 0.097214l50.231031 0c0-0.113587-0.032746-0.210801-0.032746-0.322341 0-30.40345 27.722388-55.060013 61.903885-55.060013 34.19787 0 61.921281 24.656563 61.921281 55.060013 0 24.993231-18.826787 45.887097-44.499493 52.603055-5.199419-1.839905-11.010775-2.987031-17.291828-2.987031-20.586874 0-37.249369 11.206226-37.249369 25.010627s16.662495 25.009603 37.249369 25.009603c4.198625 0 8.153704-0.564865 11.93175-1.436722l0 0.113587c2.792603-0.308015 5.715165-0.290619 8.460696-0.759293 24.026206 7.636934 41.318034 27.819602 41.318034 51.764967 0 30.466895-27.852348 55.171554-62.194504 55.171554S323.726497 281.199819 323.726497 250.7319c0-0.12996 0.032746-0.258896 0.032746-0.387833L274.172895 250.344067zM596.919577 324.842805c39.621393 5.812379 40.848337 15.597233 49.600675 24.799826 1.081635 3.842515 0.838088 1.87265 0.499373 0.419556 1.63115 1.550309 1.824555 0.904603 1.325182-0.419556l47.77612 0 0-347.20677-49.600675 0L646.520251 275.24213l-74.401524 0 0 49.601698C593.994967 325.811876 588.053652 323.518646 596.919577 324.842805zM138.833487 529.391481l742.9203 0 0-81.864496-742.9203 0 0 81.864496Z"  horiz-adv-x="1024" />

    
    <glyph glyph-name="done" unicode="&#58910;" d="M512 881.103c-274.544 0-497.103-222.56-497.103-497.103s222.56-497.103 497.103-497.103c274.544 0 497.103 222.56 497.103 497.103 0 274.544-222.56 497.103-497.103 497.103v0zM512-27.884c-227.092 0-411.884 185.522-411.884 412.355s184.795 411.414 411.884 411.414c227.092 0 411.884-184.582 411.884-411.414 0-226.833-184.795-412.355-411.884-412.355v0zM454.643 313.564c-15.838-16.006-41.319-15.552-56.865 0.962l-70.636 75.038c-15.568 16.538-41.174 16.176-56.656-0.237l-4.303-4.562c-15.723-16.67-15.509-43.786 0.298-60.38l136.38-143.163c13.037-13.686 34.157-13.686 47.194 0 0.763 0.8 307.562 315.473 307.562 315.473 15.796 16.201 15.627 42.234-0.557 58.319l-2.868 2.851c-16.103 16.007-42.005 15.997-57.834 0.002l-241.722-244.304z"  horiz-adv-x="1024" />

    
    <glyph glyph-name="outlink-icon" unicode="&#59116;" d="M558.608 453.587c-9.241 9.237-24.22 9.237-33.458 0s-9.237-24.218 0.001-33.458l22.976-22.976c51.414-51.414 51.414-135.072 0-186.486l-221.665-221.665c-24.906-24.906-58.021-38.624-93.245-38.624-35.222 0-68.336 13.716-93.243 38.624l-22.976 22.976c-24.905 24.906-38.623 58.021-38.623 93.243s13.715 68.336 38.623 93.242l181.031 181.033c9.237 9.237 9.237 24.218 0 33.457s-24.218 9.237-33.457 0l-181.031-181.030c-33.843-33.843-52.481-78.841-52.481-126.702s18.638-92.86 52.481-126.702l22.976-22.976c33.843-33.843 78.841-52.481 126.702-52.481s92.86 18.638 126.702 52.481l221.665 221.665c69.861 69.863 69.861 183.538-0.001 253.403l-22.976 22.976zM940.458 789.482l-22.976 22.976c-69.865 69.861-183.536 69.863-253.403 0l-221.664-221.664c-33.843-33.842-52.482-78.841-52.482-126.702s18.639-92.86 52.482-126.702l22.976-22.976c4.621-4.621 10.673-6.929 16.729-6.929s12.11 2.308 16.73 6.93c9.237 9.237 9.237 24.218-0.001 33.457l-22.976 22.975c-51.414 51.414-51.414 135.072 0 186.487l221.665 221.664c51.414 51.415 135.072 51.412 186.486 0l22.976-22.976c51.412-51.414 51.412-135.072 0-186.487l-181.033-181.031c-9.237-9.237-9.237-24.218 0-33.457 9.239-9.241 24.218-9.237 33.458 0l181.033 181.031c69.863 69.865 69.863 183.539 0 253.403z"  horiz-adv-x="1024" />

    
    <glyph glyph-name="edit" unicode="&#58946;" d="M785.097-94.754h-616.902c-56.688 0-102.818 46.13-102.818 102.818v685.446c0 56.683 46.13 102.813 102.818 102.813h479.809c18.951 0 34.275-15.355 34.275-34.27 0-18.919-15.324-34.274-34.275-34.274h-479.809c-18.884 0-34.275-15.386-34.275-34.27v-685.446c0-18.921 15.391-34.274 34.275-34.274h616.902c18.914 0 34.269 15.354 34.269 34.274v548.353c0 18.921 15.324 34.274 34.275 34.274s34.269-15.353 34.269-34.274v-548.353c-0.001-56.688-46.13-102.818-102.812-102.818v0zM583.743 453.6c-8.774 0-17.545 3.363-24.227 10.047-13.404 13.398-13.404 35.058 0 48.457l340.594 340.599c13.403 13.404 35.063 13.404 48.462 0 13.404-13.397 13.404-35.058 0-48.462l-340.594-340.595c-6.684-6.72-15.458-10.045-24.234-10.045v0zM442.373 453.6h-205.637c-18.921 0-34.275 15.355-34.275 34.275 0 18.919 15.355 34.274 34.275 34.274h205.636c18.914 0 34.269-15.355 34.269-34.274 0.001-18.922-15.354-34.275-34.268-34.275v0zM648.003 247.968h-411.266c-18.921 0-34.275 15.318-34.275 34.27 0 18.957 15.355 34.275 34.275 34.275h411.266c18.951 0 34.275-15.318 34.275-34.275 0-18.951-15.324-34.27-34.275-34.27v0zM648.003 247.968z"  horiz-adv-x="1024" />

    
    <glyph glyph-name="icon_off" unicode="&#58961;" d="M568.839 384l419.364 419.364c15.696 15.696 15.696 41.143 0 56.839-15.698 15.696-41.143 15.696-56.839 0l-419.364-419.363-419.364 419.363c-15.698 15.696-41.143 15.696-56.839 0s-15.696-41.143 0-56.839l419.364-419.364-419.364-419.364c-15.696-15.698-15.696-41.143 0-56.839 7.849-7.849 18.137-11.773 28.42-11.773s20.571 3.922 28.42 11.773l419.364 419.364 419.364-419.364c7.849-7.849 18.132-11.773 28.42-11.773s20.571 3.922 28.42 11.773c15.696 15.698 15.696 41.143 0 56.839l-419.369 419.364z"  horiz-adv-x="1024" />

    
    <glyph glyph-name="icon_shutdown" unicode="&#58982;" d="M512 864c-265.067 0-480-214.907-480-480s214.933-480 480-480 480 214.933 480 480-214.907 480-480 480zM717.52 216.187l-37.706-37.706-167.813 167.813-167.813-167.813-37.706 37.706 167.813 167.813-167.813 167.813 37.706 37.706 167.813-167.786 167.786 167.813 37.706-37.706-167.786-167.84 167.813-167.813z"  horiz-adv-x="1024" />

    
    <glyph glyph-name="password" unicode="&#58919;" d="M510.867 369.187c-29.502 0-53.407-23.903-53.407-53.408 0-15.816 6.876-30.022 17.802-39.8v-49.207c0-19.666 15.94-35.607 35.606-35.607 19.662 0 35.606 15.941 35.606 35.607v49.207c10.927 9.779 17.803 23.984 17.803 39.8-0.001 29.505-23.908 53.408-53.41 53.408v0zM760.109 529.404h-35.607v89.010c0 117.993-95.637 213.626-213.635 213.626s-213.635-95.633-213.635-213.626v-89.010h-35.606c-49.168 0-89.014-39.847-89.014-89.010v-338.244c0-49.16 39.847-89.006 89.014-89.006h498.481c49.148 0 89.014 39.843 89.014 89.006v338.244c0.001 49.165-39.866 89.010-89.013 89.010v0zM510.867 796.435c98.316 0 178.029-79.708 178.029-178.020v-89.010h-356.034v89.010h-0.024c-0 98.312 79.714 178.020 178.029 178.020v0zM813.516 102.154c0-29.502-23.906-53.404-53.407-53.404h-498.481c-29.503 0-53.408 23.902-53.408 53.404v338.24c0 29.503 23.906 53.408 53.408 53.408h498.481c29.502 0 53.407-23.906 53.407-53.408v-338.24zM813.516 102.154z"  horiz-adv-x="1024" />

    
    <glyph glyph-name="addressIcon" unicode="&#58956;" d="M825.117 662.164c-17.84 40.899-42.235 76.944-73.303 108.013-30.341 30.341-66.143 54.371-107.406 72.211s-85.439 26.7-132.406 26.7v0c-46.967 0-91.143-8.86-132.406-26.7s-77.066-41.87-107.406-72.211c-31.069-31.069-55.463-67.114-73.303-108.013s-26.7-84.833-26.7-131.801c0-63.594 17.84-132.406 53.399-206.317 35.559-73.91 74.638-142.237 117.115-205.104 42.477-62.866 98.911-136.048 169.301-219.303 70.512 83.376 126.945 156.436 169.301 219.303 42.477 62.866 81.435 131.314 117.115 205.104 35.559 73.91 53.399 142.602 53.399 206.317 0 46.967-8.86 90.9-26.7 131.801zM716.254 360.092c-25.364-55.948-53.279-107.771-83.498-155.344-30.22-47.696-70.512-103.037-120.756-166.146-50.244 63.109-90.537 118.45-120.756 166.146-30.22 47.574-58.132 99.396-83.498 155.344s-38.108 108.013-38.108 156.194c0 35.559 6.311 68.813 19.054 99.882 12.743 30.947 30.098 58.254 52.307 81.798 21.603 22.938 47.089 41.142 76.58 54.613s60.925 20.268 94.42 20.268v0c33.497 0 64.929-6.796 94.42-20.268s54.977-31.676 76.58-54.613c22.209-23.545 39.564-50.73 52.307-81.798 12.743-30.947 19.054-64.322 19.054-99.882 0-48.181-12.622-100.246-38.108-156.194zM512.364 632.673c-80.586 0-146-65.414-146-146s65.414-146 146-146 146 65.414 146 146-65.294 146-146 146zM512.364 398.928c-48.423 0-87.745 39.322-87.745 87.745s39.322 87.745 87.745 87.745 87.745-39.322 87.745-87.745c0-48.423-39.2-87.745-87.745-87.745z"  horiz-adv-x="1024" />

    
    <glyph glyph-name="icon_funds" unicode="&#58928;" d="M152 624v-60h120v-60h-120v-60h120v-60h60v60h120v60h-120v60h120v60h-90l90 90h-90l-60-60-60 60h-90l90-90h-90zM512 624v-60h240v60h-240zM152 234v-60h300v60h-300zM512 504v-60h240v60h-240zM152 114v-60h300v60h-300zM632 234v-60h240v60h-60v60h-60v-60h-120zM632 114v-60h60v-60h60v60h120v60h-240zM812 684v-307.5c21.3-5.4 41.4-13.8 60-24.6v332.1c0 99.3-80.67 180-180 180h-480c-99.3 0-180-80.7-180-180v-600c0-99.33 80.7-180 180-180h480c9.6 0 18.9 0.6 27.9 2.1 10.47-1.5 21.33-2.1 32.1-2.1 132.6 0 240 107.4 240 240 0 88.8-48.27 166.5-120 207.9-18.6 10.8-38.7 19.2-60 24.6-19.23 4.8-39.33 7.5-60 7.5-132.6 0-240-107.4-240-240 0-71.73 31.5-135.87 81.3-180h-381.3c-66.3 0-120 53.7-120 120v600c0 66.3 53.7 120 120 120h480c66.3 0 120-53.7 120-120zM572 144c0 99.33 80.67 180 180 180s180-80.67 180-180-80.67-180-180-180-180 80.67-180 180z"  horiz-adv-x="1024" />

    
    <glyph glyph-name="document-icon" unicode="&#59058;" d="M757.156 319.33h-49.677v-162.052l-57.661 0.116 82.499-90.989 80.672 90.659-55.835 0.112zM939.656 388.253v140.988c0 61.758-50.244 112.002-112.004 112.002h-300.471c0 0-31.697 0-32.757 0-4.916 0-8.918 4-8.918 8.918 0 0.573 0.001 34.51 0.001 34.51-4.735 44.915-42.839 80.032-88.989 80.032h-285.151c-49.341 0-89.485-40.142-89.485-89.485v-127.065c0-0.176 0.001-0.353 0.002-0.529-1.021-6.106-1.537-12.275-1.537-18.384v-460.364c0-61.758 50.244-112.002 112.002-112.002h471.3c39.409-20.795 83.536-31.835 129.363-31.835 74.177 0 143.914 28.886 196.365 81.337 52.45 52.449 81.337 122.188 81.337 196.365 0 69.173-25.13 134.481-71.055 185.514zM70.022 68.876v460.366c0 3.893 0.385 7.856 1.143 11.777l0.542 2.794-0.11 2.98c-0.017 0.454-0.039 0.906-0.039 1.363v127.065c0 21.951 17.857 39.809 39.809 39.809h285.151c21.951 0 39.809-17.857 39.809-39.809v-17.455c-0.33-2.526 3.586-29.099 3.586-29.099 6.416-16.217 16.346-30.721 33.049-36.102l3.289-0.995h351.403c34.368 0 62.327-27.959 62.327-62.326v-97.347c-25.931 17.844-54.544 31.025-84.799 39.111-24.8 7.267-50.727 11.075-77.056 11.075-73.317 0-142.247-28.551-194.092-80.396s-80.396-120.773-80.396-194.092c0-28.261 4.307-56.081 12.67-82.614 12.847-44.291 36.686-84.889 70.171-118.427h-404.127c-34.367-0.001-62.326 27.957-62.326 62.324zM733.010-25.285c-17.181 0-33.919 1.923-50.023 5.541l-50.677 23.918c-38.019 17.943-70.217 46.132-93.105 81.521-10.23 15.818-18.361 32.747-24.276 50.409-6.457 21.089-9.943 43.462-9.943 66.639 0 125.733 102.292 228.025 228.025 228.025 21.335 0 41.995-2.953 61.596-8.461 38.813-12.037 74.107-34.49 101.643-65.487l31.283-35.219c21.242-34.633 33.503-75.34 33.503-118.86 0.001-125.733-102.291-228.025-228.025-228.025z"  horiz-adv-x="1024" />

    
    <glyph glyph-name="dropdown" unicode="&#58920;" d="M881.307 182.774c-0.891-0.473-1.639-1.243-2.558-1.656-16.446-8.134-36.571-5.472-49.796 8.932l-300.188 326.511c-16.358 17.806-15.582 45.876 1.695 62.734 17.308 16.829 44.593 16.061 60.981-1.745l269.396-292.969 273.394 291.816c16.531 17.629 43.816 18.161 60.981 1.154 8.798-8.695 13.197-20.319 13.197-31.942 0-11.093-4.025-22.184-12.075-30.791l-303.123-323.552c-0.604-0.622-1.438-0.859-2.071-1.479-0.431-0.473-0.747-0.977-1.207-1.449-2.558-2.513-5.692-3.845-8.626-5.56v0z"  horiz-adv-x="1707" />

    
    <glyph glyph-name="webdoc-icon" unicode="&#58957;" d="M357.374 339.434h197.93v-39.585h-197.93v39.585zM357.374 199.717h277.102v-39.585h-277.102v39.585zM357.374 477.984h277.102v-39.585h-277.102v39.585zM838.736-111.055h-652.544c-33.27 0-59.407 28.012-59.407 61.283l-0.928 869.421c0 33.291 26.134 59.407 59.407 59.407h460.401c14.261 0 28.109-5.076 38.976-14.282l193.497-197.344c12.222-10.24 19.077-27.983 19.077-45.754l0.928-673.322c0-33.301-26.134-59.408-59.406-59.408zM185.264 839.451c-11.429 0-20.731-9.301-20.731-20.731l0.928-869.421c0-11.449 9.301-20.75 20.731-20.75h652.544c11.429 0 20.731 9.301 20.731 20.731l-0.928 673.322c0 6.14-2.678 11.902-7.349 15.857l-193.487 197.344c-2.388 1.905-7.136 3.646-12.037 3.646h-460.401zM871.991 616.535h-237.516v237.516h39.585v-197.93h197.93z"  horiz-adv-x="1024" />

    
    <glyph glyph-name="documentsend-icon" unicode="&#58894;" d="M617.902 674.717l83.971 83.97v-328.101c0-18.291 14.829-33.119 33.119-33.119s33.119 14.829 33.119 33.119v328.101l83.971-83.97c12.933-12.933 33.901-12.933 46.835 0s12.933 33.902 0 46.835l-140.507 140.507c-0.867 0.868-1.773 1.67-2.708 2.423-1.68 1.35-3.457 2.515-5.309 3.488-0.567 0.298-1.145 0.576-1.727 0.837-0.893 0.405-1.799 0.772-2.718 1.094-0.023 0.007-0.050 0.015-0.075 0.022-11.613 4.030-25.023 1.409-34.299-7.867l-140.506-140.507c-12.933-12.933-12.933-33.901 0-46.835s33.902-12.933 46.835 0zM876.294 496.821h-42.612c-18.291 0-33.119-14.829-33.119-33.119s14.829-33.119 33.119-33.119h16.117c51.213 0 92.729-41.517 92.729-92.729v-278.188c0-51.213-41.517-92.729-92.729-92.729h-675.601c-51.213 0-92.729 41.517-92.729 92.729v507.362c0 51.213 41.517 92.729 92.729 92.729h145.718c49.763 0 90.361-39.201 92.62-88.405v-8.19c0-73.162 59.308-132.471 132.471-132.471h18.656v-0.11h71.975c18.291 0 33.119 14.829 33.119 33.119s-14.829 33.119-33.119 33.119h-27.044v0.11h-37.095c-45.067 0-82.613 32.15-90.982 74.762l-1.637 21.831c0 73.163-59.309 132.471-132.471 132.471h-198.706c-73.163 0-132.471-59.309-132.471-132.471v-560.352c0-73.163 59.308-132.471 132.471-132.471h728.59c73.163 0 132.471 59.308 132.471 132.471v331.178c0 73.163-59.309 132.473-132.471 132.473zM843.177 313.349h-662.354c-18.291 0-33.119-14.829-33.119-33.119s14.829-33.119 33.119-33.119h662.354c18.292 0 33.119 14.829 33.119 33.119s-14.829 33.119-33.119 33.119zM843.177 142.47h-662.354c-18.291 0-33.119-14.829-33.119-33.119s14.829-33.119 33.119-33.119h662.354c18.292 0 33.119 14.829 33.119 33.119s-14.829 33.119-33.119 33.119z"  horiz-adv-x="1024" />

    
    <glyph glyph-name="orderMeal-icon" unicode="&#58895;" d="M990.541 25.615h-957.082c-7.62-3.22-12.979-10.8-12.979-19.64 0-11.779 9.46-21.319 21.139-21.319h940.761c11.68 0 21.139 9.54 21.139 21.319 0 8.84-5.36 16.42-12.979 19.64zM397.285 501.775c-58.078-10.539-110.856-41.418-152.674-89.296-31.399-35.919-45.718-68.877-46.318-70.257-4.64-10.82 0.321-23.361 11.040-28.019 2.719-1.2 5.559-1.76 8.359-1.76 8.2 0 15.98 4.801 19.439 12.859 0.48 1.12 49.798 113.116 167.634 134.535 11.498 2.080 19.139 13.18 17.079 24.759-2.080 11.577-13.080 19.277-24.559 17.178zM40.979 189.448h942.041c11.32 0 20.479 9.16 20.479 20.479s-9.159 20.479-20.479 20.479h-20.479c0 206.292-138.794 379.785-327.987 433.223-1.72 66.357-55.777 119.716-122.555 119.716-66.777 0-120.835-53.358-122.555-119.716-189.19-53.437-327.985-226.931-327.985-433.223h-20.479c-11.319 0-20.48-9.16-20.48-20.479s9.161-20.479 20.48-20.479zM512 742.386c40.839 0 74.397-29.959 80.617-69.037-26.199 4.74-53.058 7.6-80.617 7.6s-54.418-2.86-80.616-7.6c6.22 39.078 39.778 69.037 80.616 69.037zM512 639.99c226.211 0 409.584-183.373 409.584-409.584h-819.166c0 226.211 183.372 409.584 409.583 409.584z"  horiz-adv-x="1024" />

    
    <glyph glyph-name="warning" unicode="&#59095;" d="M513.85703864-79.92387643999996c-257.85373474 0-466.88054713 209.02252139-466.88054713 466.86660054 0 257.86553529 209.02681344 466.88805771 466.88054713 466.88805773 257.84729769 0 466.87518361-209.02252139 466.87518362-466.88805773C980.73222226 129.09864598000001 771.70433633-79.92387643999996 513.85703864-79.92387643999996L513.85703864-79.92387643999996zM572.21590061 649.57798503c0 16.11686414-13.06793087 29.16870239-29.18264899 29.16870239l-58.35886197 0c-16.11901017 0-29.18264898-13.05076577-29.18264898-29.16870239l0-291.80396332c0-16.11901017 13.06363986-29.17299341 29.18264898-29.17299341l58.35886197 0c16.11364562 0 29.18264898 13.05505677 29.18264899 29.17299341L572.21590061 649.57798503 572.21590061 649.57798503zM513.85703864 211.87901437999994c-32.2326558 0-58.36422547-26.14122525-58.36422547-58.35993446 0-32.24016533 26.13156968-58.367444 58.36422547-58.367444 32.23158225 0 58.35886197 26.13156968 58.35886197 58.367444C572.21590061 185.73778915000003 546.08862088 211.87901437999994 513.85703864 211.87901437999994L513.85703864 211.87901437999994zM513.85703864 211.87901437999994"  horiz-adv-x="1024" />

    
    <glyph glyph-name="menuUnfold" unicode="&#58902;" d="M627.357 54.41h65.918v659.181h-65.918v-659.181zM462.562 54.41h65.918v659.181h-65.918v-659.181zM297.766 54.41h65.918v659.181h-65.918v-659.181z"  horiz-adv-x="1024" />

    
    <glyph glyph-name="triangleDown" unicode="&#59425;" d="M823.024 568.762c21.003-25.266 20.631-63.090-2.475-87.055l-263.080-272.791c-24.223-25.1-63.479-25.1-87.694 0l-263.072 272.79c-23.122 23.967-23.494 61.782-2.483 87.048l618.804 0.008z"  horiz-adv-x="1024" />

    
    <glyph glyph-name="point" unicode="&#58887;" d="M258.057 384.124c0-140.385 113.803-254.188 254.188-254.188s254.188 113.803 254.188 254.188c0 140.385-113.803 254.188-254.188 254.188-140.385 0-254.188-113.803-254.188-254.188z"  horiz-adv-x="1024" />

    
    <glyph glyph-name="richeng" unicode="&#59115;" d="M935.968 499.968 120.128 499.968c-13.248 0-24 10.752-24 24s10.752 24 24 24l815.84 0c13.248 0 24-10.752 24-24S949.216 499.968 935.968 499.968zM475.296 110.496c-5.728 0-11.264 2.016-15.616 5.792l-132.576 113.696c-10.048 8.64-11.232 23.776-2.592 33.856s23.776 11.232 33.856 2.592l114.336-98.048 205.824 240.032c8.672 10.016 23.776 11.2 33.856 2.592 10.048-8.64 11.232-23.776 2.592-33.856l-221.44-258.24c-4.128-4.832-10.016-7.808-16.384-8.32C476.512 110.528 475.904 110.496 475.296 110.496zM344.256 619.232c-13.248 0-24 10.752-24 24L320.256 782.4c0 13.248 10.752 24 24 24s24-10.752 24-24l0-139.168C368.256 629.984 357.504 619.232 344.256 619.232zM695.232 619.232c-13.248 0-24 10.752-24 24L671.232 782.4c0 13.248 10.752 24 24 24s24-10.752 24-24l0-139.168C719.232 629.984 708.48 619.232 695.232 619.232zM587.904 688.832l-136.352 0c-13.248 0-24 10.752-24 24s10.752 24 24 24l136.352 0c13.248 0 24-10.752 24-24S601.152 688.832 587.904 688.832zM809.44-38.4 204.096-38.4C126.848-38.4 64 24.448 64 101.664L64 589.248c0 81.376 66.208 147.584 147.584 147.584l24.544 0c13.248 0 24-10.752 24-24s-10.752-24-24-24L211.584 688.832C156.672 688.832 112 644.128 112 589.248l0-487.552c0-50.752 41.312-92.064 92.064-92.064l605.344 0c56.544 0 102.528 46.016 102.528 102.56l0 480c0 53.28-43.36 96.672-96.672 96.672l-13.664 0c-13.248 0-24 10.752-24 24s10.752 24 24 24l13.664 0c79.744 0 144.672-64.896 144.672-144.672l0-480C959.968 29.152 892.448-38.4 809.44-38.4z"  horiz-adv-x="1024" />

    
    <glyph glyph-name="warn" unicode="&#58884;" d="M512-24c224.88 0 408 183.12 408 408s-183.12 408-408 408c-224.88 0-408-183.12-408-408 0-224.88 183.12-408 408-408M512-96c-265.2 0-480 214.8-480 480s214.8 480 480 480c265.2 0 480-214.8 480-480 0-265.2-214.8-480-480-480 0 0 0 0 0 0zM512 144c-26.4 0-48 21.6-48 48s21.6 48 48 48c26.64 0 48-21.6 48-48 0-26.4-21.36-48-48-48 0 0 0 0 0 0zM514.88 288c0 0-6 0-6 0-24.72 0-44.88 20.16-44.88 45.12 0 0 0 246 0 246 0 24.72 20.16 44.88 44.88 44.88 0 0 6 0 6 0 24.96 0 45.12-20.16 45.12-44.88 0 0 0-246 0-246 0-24.96-20.16-45.12-45.12-45.12 0 0 0 0 0 0z"  horiz-adv-x="1024" />

    
    <glyph glyph-name="basicInfo" unicode="&#58901;" d="M291.644 483.772h440.706c17.368 0 31.481 14.095 31.481 31.479 0 17.401-14.11 31.496-31.481 31.496h-440.706c-17.399 0-31.48-14.095-31.48-31.496 0-17.385 14.080-31.479 31.48-31.479zM417.561 704.141h188.874c52.139 0 94.438 42.254 94.438 94.422s-42.298 94.438-94.438 94.438h-188.874c-52.137 0-94.438-42.27-94.438-94.438s42.3-94.422 94.438-94.422zM417.561 830.039h188.874c17.368 0 31.481-14.079 31.481-31.479 0-17.383-14.11-31.481-31.481-31.481h-188.874c-17.399 0-31.48 14.096-31.48 31.481 0 17.397 14.080 31.479 31.48 31.479zM763.832 326.391c0 17.383-14.11 31.464-31.481 31.464h-440.706c-17.399 0-31.48-14.080-31.48-31.464 0-17.399 14.079-31.48 31.48-31.48h440.706c17.368 0.001 31.481 14.081 31.481 31.48zM858.268 830.039h-94.438v-62.958h94.438c17.399 0 31.48-14.079 31.48-31.479v-755.497c0-17.386-14.080-31.481-31.48-31.481h-692.539c-17.401 0-31.479 14.095-31.479 31.481v755.497c0 17.399 14.078 31.479 31.479 31.479h94.438v62.958h-94.438c-52.138 0-94.438-42.284-94.438-94.438v-755.497c0-52.171 42.299-94.442 94.438-94.442h692.539c52.136 0 94.438 42.271 94.438 94.442v755.497c0 52.153-42.3 94.438-94.438 94.438zM291.644 168.982c-17.399 0-31.48-14.080-31.48-31.481 0-17.386 14.079-31.464 31.48-31.464h251.833c17.399 0 31.479 14.078 31.479 31.464 0 17.401-14.079 31.481-31.479 31.481h-251.833z"  horiz-adv-x="1024" />

    
    <glyph glyph-name="success" unicode="&#59600;" d="M517.113 847.975c-256.25 0-463.971-207.728-463.971-463.973 0-256.25 207.721-463.977 463.971-463.977 256.248 0 463.979 207.727 463.979 463.977 0 256.246-207.731 463.973-463.979 463.973v0zM806.227 497.882l-324.683-313.082c-4.317-4.312-9.197-7.702-14.403-10.191-20.391-14.565-48.894-12.709-67.204 5.6l-139.428 139.431c-20.387 20.39-20.387 53.437 0 73.814 20.378 20.389 53.429 20.389 73.815 0l104.682-104.675 293.401 282.922c20.386 20.385 53.438 20.385 73.814 0 20.388-20.38 20.388-53.432 0.004-73.818v0z"  horiz-adv-x="1024" />

    
    <glyph glyph-name="error" unicode="&#59601;" d="M517.132-78.078c-254.42 0-460.66 206.241-460.66 460.66 0 254.416 206.24 460.659 460.66 460.659 254.417 0 460.66-206.243 460.66-460.659 0-254.418-206.242-460.66-460.66-460.66v0zM730.991 598.159h-0.005c-21.556 21.558-56.515 21.558-78.073 0l-136.828-136.825-135.096 135.096c-21.475 21.478-56.298 21.478-77.773 0h-0.006c-21.471-21.482-21.471-56.303 0-77.78l135.092-135.094-136.75-136.759c-21.568-21.557-21.568-56.505 0-78.064h0.006c21.551-21.566 56.509-21.566 78.072 0l136.75 136.741 136.819-136.825c21.483-21.459 56.303-21.459 77.777 0v0.020c21.478 21.478 21.478 56.278 0 77.761l-136.819 136.824 136.834 136.835c21.563 21.562 21.563 56.51 0 78.069v0z"  horiz-adv-x="1024" />

    
    <glyph glyph-name="carbooking-icon" unicode="&#58958;" d="M101.491 526.457c14.47 0 26.708-8.733 26.719-19.076 0.012-10.343-12.226-19.118-26.719-19.139l-0.054-20.773v20.773c-14.458 0-26.685 8.733-26.685 19.075-0.021 10.365 12.204 19.119 26.739 19.141v0zM917.305 527.437c14.459 0 26.697-8.754 26.719-19.076 0.021-10.343-12.217-19.119-26.719-19.138l-0.044-20.774v20.774c-14.458 0-26.695 8.732-26.695 19.074-0.011 10.343 12.218 19.119 26.739 19.141v0zM101.437 446.673h0.098c36.812 0.066 66.805 26.195 68.014 58.685 0 0.065 0.033 0.108 0.033 0.174l15.601 172.719 0.087 1.916c-0.033 21.275 7.786 41.243 21.993 56.222 13.957 14.721 32.457 22.82 52.075 22.842l229.019 0.284 0.315-264.13c0.021-11.474 9.287-20.773 20.731-20.773h0.032c11.444 0.021 20.709 9.341 20.698 20.817l-0.315 264.13 229.093 0.285c40.851 0 74.123-35.385 74.166-78.914l16.114-174.571c0.012-0.066 0.033-0.109 0.033-0.174 1.284-32.443 31.28-58.531 68.037-58.531h0.109c37.604 0.045 68.155 27.307 68.112 60.774-0.066 33.403-30.638 60.579-68.267 60.579-11.366-0.021-22.112-2.57-31.553-6.988l-11.126 119.958c-0.601 65.979-52.261 119.436-115.628 119.436h-0.121l-499.507-0.609c-31.051-0.021-60.197-12.717-82.049-35.755-21.372-22.515-33.207-52.304-33.424-83.943l-10.844-120.001c-9.451 4.398-20.175 6.925-31.573 6.925-37.583-0.045-68.145-27.284-68.1-60.752 0.036-33.406 30.608-60.603 68.147-60.603v0zM831.098 236.979c-6.261-6.292-14.578-9.756-23.43-9.756l-0.044-20.793v20.793c-18.261 0-33.131 14.895-33.142 33.187-0.021 8.882 3.42 17.244 9.679 23.516 6.25 6.294 14.569 9.756 23.463 9.756 18.247 0 33.13-14.895 33.153-33.184 0.012-8.885-3.438-17.223-9.678-23.518v0zM807.536 335.269c-19.922-0.022-38.65-7.838-52.717-21.971-14.086-14.15-21.817-32.943-21.796-52.935 0.054-41.199 33.502-74.732 74.602-74.732h0.097c41.134 0.066 74.558 33.642 74.516 74.906-0.055 41.221-33.535 74.732-74.701 74.732v0zM211.728 226.503l-0.033-20.793v20.793c-18.258 0-33.131 14.895-33.153 33.187-0.011 18.333 14.841 33.27 33.153 33.292 18.258 0 33.12-14.893 33.141-33.206 0.021-18.313-14.829-33.25-33.109-33.274v0zM211.607 334.554c-41.133-0.046-74.569-33.643-74.526-74.906 0.054-41.201 33.522-74.714 74.612-74.714h0.087c41.133 0.046 74.558 33.643 74.515 74.885-0.054 41.221-33.511 74.734-74.688 74.734v0zM956.543 151.404c-8.623-8.689-20.077-13.478-32.185-13.501l-829.118-1.003-0.065-20.773v20.773c-25.095 0-45.554 20.514-45.587 45.687l-0.173 147.654c-0.021 25.194 20.402 45.751 45.543 45.771l829.182 0.98c25.106 0 45.575-20.468 45.599-45.66l0.173-147.636c0.002-12.151-4.746-23.626-13.369-32.291v0zM861.115 22.953c0-2.265-1.894-4.159-4.138-4.159l-88.451-0.109c-1.383 0-2.341 0.672-2.907 1.242-0.565 0.565-1.241 1.524-1.241 2.917l-0.078 73.296 96.724 0.127 0.087-73.314zM255.495 22.234c0-1.375-0.676-2.352-1.23-2.919-0.565-0.563-1.524-1.239-2.908-1.239l-88.45-0.086c-1.383 0-2.341 0.672-2.907 1.216-0.578 0.567-1.242 1.547-1.242 2.919l-0.087 73.294 96.735 0.109 0.087-73.295zM1011.199 331.375c-0.044 48.077-39.107 87.209-87.165 87.209l-829.118-0.98c-48.003-0.065-87.012-39.283-86.947-87.428l0.163-147.633c0.065-48.099 39.119-87.209 87.045-87.209l22.036 0.022 0.087-73.274c0.021-12.196 4.79-23.67 13.425-32.317 8.623-8.623 20.054-13.369 32.183-13.369l88.505 0.086c25.139 0.044 45.575 20.578 45.543 45.794l-0.086 73.294 425.974 0.502 0.086-73.274c0.033-25.217 20.48-45.684 45.598-45.684l88.506 0.086c25.139 0.044 45.574 20.58 45.541 45.794l-0.086 73.294 21.94 0.044c23.188 0.022 45.007 9.146 61.47 25.696 16.462 16.548 25.52 38.453 25.476 61.71l-0.176 147.636zM1011.199 331.375z"  horiz-adv-x="1024" />

    
    <glyph glyph-name="workblog-icon" unicode="&#58959;" d="M907.476-110.343h-790.953c-55.385 0-98.869 38.823-98.869 84.763v819.182c0 47.669 43.485 84.743 98.869 84.743h790.953c55.349 0 98.869-38.859 98.869-84.743v-817.433c0-47.687-45.479-86.51-98.869-86.51zM116.524 844.8c-33.633 0-59.321-22.969-59.321-51.2v-817.433c0-28.284 25.687-51.2 59.303-51.2h790.969c33.58 0 59.303 22.969 59.303 51.2v817.433c0 28.249-25.724 51.2-59.303 51.2h-790.953zM294.489-99.751v0c-9.905 0-19.791 7.062-19.791 17.657v918.069c0 8.828 9.905 17.657 19.791 17.657v0c9.905 0 19.756-7.062 19.756-17.657v-918.069c0-8.791-7.892-17.657-19.756-17.657zM820.453 652.359l-79.077 105.931-79.097-105.931v211.862h158.173v-105.931z"  horiz-adv-x="1024" />

    
    <glyph glyph-name="prompt" unicode="&#58909;" d="M512-104.458c-269.659 0-488.459 218.8-488.459 488.459 0 269.657 218.8 488.457 488.459 488.457 269.657 0 488.457-218.8 488.457-488.457 0.001-269.659-218.799-488.459-488.457-488.459M512 814.811c-237.726 0-430.805-192.784-430.805-430.805 0-238.022 192.784-430.806 430.806-430.806 238.021 0 430.804 192.784 430.804 430.806 0 237.725-192.778 430.805-430.805 430.805M425.364 471.824h-61.204c-1.779 58.841 16.852 101.414 55.879 128.028 26.613 21.291 59.438 31.932 98.761 31.932 88.704-7.097 136.012-51.443 141.33-133.346 1.777-37.257-18.625-75.402-61.205-114.726-46.715-33.404-67.119-74.215-61.5-122.113h-58.841c-1.772 33.71 1.779 59.438 10.649 77.171 5.324 15.971 23.062 39.034 53.221 69.191l5.324 5.318c37.254 31.937 54.108 61.204 50.562 87.817-5.324 51.45-32.817 78.063-82.493 80.13-62.090-1.772-92.25-38.135-90.478-109.402v0 0h-0.006zM542.75 205.417v-69.188h-66.528v69.188h66.528zM542.75 205.417z"  horiz-adv-x="1024" />

    
    <glyph glyph-name="news1-icon" unicode="&#58960;" d="M933.801 872.118h-699.75c-40.547 0-73.527-32.979-73.527-73.503v-833.157c0-8.699 1.786-16.917 4.575-24.684h-54.926c-13.5 0-24.508 10.985-24.508 24.508v713.149c0 13.523 11.010 24.508 24.508 24.508v49.019c-40.547 0-73.527-32.979-73.527-73.503v-713.149c0-40.547 32.979-73.503 73.527-73.503l823.628 0.175c40.547 0 73.527 32.979 73.527 73.503v833.13c-0.023 40.547-33.007 73.503-73.527 73.503zM958.308-34.539c0-13.523-11.010-24.508-24.508-24.508h-699.75c-13.523 0-24.508 10.985-24.508 24.508v833.157c0 13.523 11.010 24.508 24.508 24.508h699.75c13.5 0 24.508-10.985 24.508-24.508v-833.157zM828.426 276.090h-455.326c-8.72 0-15.813-7.329-15.813-16.331v-9.38c0-9.027 7.093-16.331 15.813-16.331h455.349c8.72 0 15.813 7.329 15.813 16.331v9.38c-0.022 9.004-7.118 16.331-15.838 16.331zM828.426 158.423h-455.326c-8.72 0-15.813-7.329-15.813-16.331v-9.38c0-9.027 7.093-16.331 15.813-16.331h455.349c8.72 0 15.813 7.329 15.813 16.331v9.38c-0.022 9.004-7.118 16.331-15.838 16.331zM374.518 341.517h198.939c27.728 0 50.275 22.549 50.275 50.275v201.099c0 27.728-22.549 50.275-50.275 50.275h-198.939c-27.728 0-50.275-22.549-50.275-50.275v-201.099c0-27.728 22.549-50.275 50.275-50.275zM374.518 592.893h198.939l-0.075-201.099h-198.862v201.099zM689.949 573.357h133.857c11.243 0 20.409 9.191 20.409 20.409s-9.191 20.409-20.409 20.409h-133.857c-11.243 0-20.409-9.191-20.409-20.409s9.191-20.409 20.409-20.409zM689.949 459.765h133.857c11.243 0 20.409 9.191 20.409 20.409s-9.191 20.409-20.409 20.409h-133.857c-11.243 0-20.409-9.191-20.409-20.409s9.191-20.409 20.409-20.409zM689.949 346.176h133.857c11.243 0 20.409 9.191 20.409 20.409s-9.191 20.409-20.409 20.409h-133.857c-11.243 0-20.409-9.191-20.409-20.409s9.191-20.409 20.409-20.409z"  horiz-adv-x="1024" />

    
    <glyph glyph-name="others-icon" unicode="&#58962;" d="M427.799 861.26h-356.61c-21.792 0-39.623-17.829-39.623-39.623v-356.611c0-21.792 17.831-39.623 39.623-39.623h356.611c21.792 0 39.623 17.831 39.623 39.623v356.611c-0.001 21.794-17.833 39.623-39.625 39.623zM427.799 465.025h-356.61v356.611h356.611v-356.611zM952.811 861.26h-356.611c-21.792 0-39.623-17.829-39.623-39.623v-356.611c0-21.792 17.831-39.623 39.623-39.623h356.611c21.792 0 39.623 17.831 39.623 39.623v356.611c0 21.794-17.831 39.623-39.623 39.623zM952.811 465.025h-356.611v356.611h356.611v-356.611zM427.799 336.249h-356.61c-21.792 0-39.623-17.829-39.623-39.623v-356.611c0-21.792 17.831-39.623 39.623-39.623h356.611c21.792 0 39.623 17.831 39.623 39.623v356.611c-0.001 21.794-17.833 39.623-39.625 39.623zM427.799-59.985h-356.61v356.61h356.611v-356.61zM952.811 336.249h-356.611c-21.792 0-39.623-17.829-39.623-39.623v-356.611c0-21.792 17.831-39.623 39.623-39.623h356.611c21.792 0 39.623 17.831 39.623 39.623v356.611c0 21.794-17.831 39.623-39.623 39.623zM952.811-59.985h-356.611v356.61h356.611v-356.61z"  horiz-adv-x="1024" />

    
    <glyph glyph-name="contact-icon" unicode="&#58896;" d="M37.833 578.631h134.614c12.987 0 23.514 10.528 23.514 23.514 0 12.987-10.528 23.514-23.514 23.514h-134.614c-12.987 0-23.514-10.528-23.514-23.514s10.528-23.514 23.514-23.514zM172.449 407.285h-134.614c-12.987 0-23.514-10.528-23.514-23.514 0-12.987 10.528-23.514 23.514-23.514h134.614c12.987 0 23.514 10.528 23.514 23.514s-10.527 23.514-23.514 23.514zM172.449 189.723h-134.614c-12.987 0-23.514-10.528-23.514-23.514 0-12.987 10.528-23.514 23.514-23.514h134.614c12.987 0 23.514 10.528 23.514 23.514s-10.527 23.514-23.514 23.514zM890.391 892.997h-698.627c-57.872 0-104.787-46.914-104.787-104.787v-76.972h47.745v64.611c0 45.011 24.847 69.857 69.857 69.857h674.085c45.011 0 69.857-24.847 69.857-69.857v-784.106c0-45.011-24.847-69.857-69.857-69.857h-674.085c-45.011 0-69.857 24.847-69.857 69.857v64.611h-47.745v-75.757c0-57.872 46.914-104.787 104.787-104.787h698.627c57.872 0 104.787 46.914 104.787 104.787v807.612c0 57.871-46.914 104.787-104.787 104.787zM638.532 265.367c60.869 34.191 102.35 98.741 102.35 173.529 0 110.35-89.454 199.804-199.804 199.804s-199.804-89.454-199.804-199.804c0-74.945 41.658-139.607 102.738-173.742-58.842-25.408-117.45-73.101-141.899-132.449h50.764c32.507 61.259 107.516 103.631 181.024 106.383 2.378 0.001 4.768 0.002 7.179 0.002 2.71 0 5.401-0.001 8.073-0.003 73.505-2.754 148.51-45.125 181.013-106.383h50.764c-24.518 59.516-83.323 107.311-142.397 132.663zM387.498 438.897c0 84.817 68.763 153.58 153.58 153.58 84.82 0 153.58-68.763 153.58-153.58 0-84.82-68.759-153.58-153.58-153.58-84.818 0-153.58 68.759-153.58 153.58z"  horiz-adv-x="1024" />

    
    <glyph glyph-name="icon_SortingUp" unicode="&#59638;" d="M833.946 536.993l-281.587 281.587c-21.991 21.994-57.652 21.994-79.644 0l-281.588-281.587c-21.989-21.995-21.989-57.653 0-79.644 21.995-21.996 57.653-21.996 79.644 0l185.448 185.449v-652.484c0-31.104 25.214-56.318 56.318-56.318s56.318 25.212 56.318 56.318v652.484l185.449-185.448c10.996-10.997 25.408-16.496 39.82-16.495s28.825 5.498 39.821 16.494c21.989 21.996 21.989 57.653-0.002 79.644z"  horiz-adv-x="1024" />

    
    <glyph glyph-name="icon_contract" unicode="&#58930;" d="M632.849-51.39h-479.497c-39.024 0-70.953 31.86-70.953 70.793v771.665c0 38.939 31.929 70.799 70.953 70.799h529.159c21.285 0 46.118-10.623 60.309-24.782l156.092-159.284c14.19-14.161 24.839-42.48 24.839-60.18v-368.131c-35.479 28.319-81.597 46.019-131.266 46.019-117.066 0-212.852-95.577-212.852-208.85 0-53.093 21.285-102.651 53.215-138.047zM639.942 355.682c14.19 0 24.832 10.619 24.832 24.775 0 14.162-10.642 24.78-24.832 24.78h-422.733c-14.189 0-24.83-10.619-24.83-24.78 0-14.157 10.641-24.775 24.83-24.775h422.733zM217.21 688.419c-14.189 0-24.83-10.619-24.83-24.78 0-14.156 10.641-24.777 24.83-24.777h316.306c14.188 0 24.836 10.621 24.836 24.777-0.001 14.161-10.647 24.78-24.836 24.78h-316.306zM849.251 624.702l-159.641 159.29c-14.188 14.157-24.833 10.62-24.833-10.623v-102.651c0-38.938 31.929-70.794 70.953-70.794h102.879c21.285 0 24.833 10.62 10.643 24.777v0zM796.034 546.827h-578.826c-14.189 0-24.83-10.619-24.83-24.775 0-14.163 10.641-24.781 24.83-24.781h578.826c14.192 0.001 24.837 10.618 24.837 24.781 0 14.157-10.644 24.775-24.837 24.775zM792.486 260.107c99.335 0 177.38-77.874 177.38-176.986s-78.045-176.988-177.38-176.988c-99.33 0-177.378 77.875-177.378 176.988 0.001 99.113 78.049 176.986 177.378 176.986v0zM792.486-54.929c78.049 0 141.905 60.176 141.905 141.587 0 77.876-63.856 141.593-141.905 141.593-78.043 0-141.901-63.715-141.901-141.593 0-77.872 63.859-141.587 141.901-141.587v0zM686.061 111.439c3.548 7.082 10.643 14.16 17.739 14.16l49.666 7.079 24.831 46.019c7.098 14.156 28.384 14.156 35.478 0l24.832-46.019 49.666-7.079c7.093-3.538 10.641-7.076 17.741-14.16 0-7.079 0-17.698-3.551-24.78l-39.024-35.393 3.548-49.557c0-7.082 0-10.623-7.097-17.7-3.547 0-3.547-3.538-10.642-3.538 0 0-3.547 0-7.095 3.538l-46.122 24.777-46.113-24.777c-7.098-3.538-17.739 0-21.286 3.539-3.548 3.539-7.098 10.619-7.098 17.7l10.646 53.093-39.025 35.401c-7.093 3.537-10.641 10.615-7.093 17.696v0z"  horiz-adv-x="1024" />

    
    <glyph glyph-name="salaryItem-icon" unicode="&#58891;" d="M873.724 779.717v49.834c0 16.449-13.323 29.795-29.771 29.795h-655.244c-16.449 0-29.771-13.345-29.771-29.795v-49.627h-5.814c-76.178 0-138.154-61.974-138.154-138.128v-597.372c0-76.175 61.974-138.153 138.154-138.153h716.503c76.153 0 138.151 61.974 138.151 138.153v597.372c0.001 74.764-59.772 135.718-134.049 137.921zM948.189 641.796v-179.577h-74.463v257.723c41.379-2.201 74.463-36.234 74.463-78.146zM218.48 799.781h595.701v-337.563h-595.701v337.563zM153.122 720.361h5.814v-258.141h-79.422c-1.713 0-3.338-0.21-4.957-0.487v180.064c0.001 43.302 35.242 78.563 78.564 78.563zM869.626-34.161h-716.505c-43.325 0-78.563 35.262-78.563 78.587v358.737c1.622-0.277 3.244-0.487 4.957-0.487h868.672v-358.251c-0.001-43.323-35.242-78.587-78.563-78.587zM581.434 649.094c10.192 0 18.489 8.272 18.489 18.465 0 10.218-8.297 18.465-18.489 18.465h-38.993l37.024 37.023c7.204 7.229 7.204 18.907 0 26.11-7.205 7.229-18.908 7.229-26.111 0l-45.782-45.758-45.78 45.758c-7.205 7.229-18.907 7.229-26.087 0-7.229-7.205-7.229-18.881 0-26.11l36.998-37.023h-38.993c-10.193 0-18.465-8.247-18.465-18.465 0-10.193 8.272-18.465 18.465-18.465h55.396v-36.906h-55.396c-10.193 0-18.465-8.272-18.465-18.489 0-10.193 8.272-18.465 18.465-18.465h55.396v-49.232c0-10.217 8.273-18.464 18.465-18.464 10.193 0 18.465 8.247 18.465 18.464v49.232h55.398c10.192 0 18.489 8.272 18.489 18.465 0 10.217-8.297 18.489-18.489 18.489h-55.395v36.906h55.395z"  horiz-adv-x="1024" />

    
    <glyph glyph-name="remain" unicode="&#59803;" d="M682.43 470.854c-31.157-30.838-208.382-179.413-208.382-179.413 0.855-0.904-92.254 79.282-124.326 111.27-38.197 38.081-99.405-8.932-52.871-55.23 38.111-37.92 177.071-159.231 177.195-158.036-2.676-2.64 218.121 190.299 263.207 235.172 35.726 35.561-11.741 88.868-54.823 46.237zM150.159 818.363c-64.963 0-117.619-48.396-117.619-108.092 0-24.902 9.169-47.852 24.572-66.131l149.649 160.911c-16.792 8.483-36.092 13.313-56.602 13.313zM511.648 794.010c-239.13 0-432.981-193.841-432.981-432.973 0-239.13 193.851-432.994 432.981-432.994 239.137 0 432.988 193.864 432.988 432.994 0 239.132-193.851 432.973-432.988 432.973zM511.648 7.881c-195.043 0-353.147 158.111-353.147 353.156 0 195.036 158.104 353.141 353.147 353.141 195.049 0 353.149-158.106 353.149-353.141 0-195.045-158.1-353.156-353.149-353.156zM873.149 818.361c-20.52 0-39.81-4.828-56.608-13.313l149.634-160.911c15.401 18.279 24.587 41.227 24.587 66.131 0 59.698-52.661 108.094-117.613 108.092z"  horiz-adv-x="1024" />

    
    <glyph glyph-name="editIcon" unicode="&#58963;" d="M430.167 188.26l-37.915 75.962-75.962 38.003 387.573 387.572-56.938 56.939-466.641-466.686 151.97-75.916 75.874-151.837 466.595 466.663-56.939 56.939-387.617-387.639zM960.13 832.165c-30.465 30.42-70.863 47.184-113.922 47.184-43.014 0-83.5-16.785-113.877-47.205l-28.47-28.49 227.8-227.756 28.469 28.47c30.466 30.465 47.228 70.952 47.183 114.031-0.045 43.038-16.806 83.435-47.183 113.766zM924.078 697.402l-98.71 98.69c26.96 7.228 57.515-0.599 77.87-20.909 15.165-15.143 23.546-35.32 23.546-56.828 0-0.001 0-0.003 0-0.005 0-7.447-0.987-14.663-2.839-21.525zM135.673 7.688l59.955 179.818-76.362 25.5-110.906-332.676 332.63 110.86-25.455 76.363-179.862-59.865z"  horiz-adv-x="1024" />

    
    <glyph glyph-name="dealIcon" unicode="&#58964;" d="M476.391 421.356h-228.65c-4.192 0-7.547-5.451-7.547-12.205 0-6.776 3.355-12.226 7.547-12.226h228.65c4.15 0 7.504 5.45 7.504 12.226 0 6.754-3.354 12.205-7.504 12.205zM476.391 522.549h-228.65c-4.192 0-7.547-5.474-7.547-12.249 0-6.754 3.355-12.227 7.547-12.227h228.65c4.15 0 7.504 5.473 7.504 12.227 0 6.775-3.354 12.249-7.504 12.249zM476.391 623.698h-228.65c-4.192 0-7.547-5.495-7.547-12.226 0-6.776 3.355-12.25 7.547-12.25h228.65c4.15 0 7.504 5.474 7.504 12.25 0 6.73-3.354 12.226-7.504 12.226zM252.442 698.030h170.010c0.004-0 0.008-0 0.012-0 6.757 0 12.235 5.478 12.235 12.235 0 0.005-0 0.011-0 0.016 0 6.753-5.473 12.226-12.248 12.226h-170.009c-6.797 0-12.248-5.474-12.248-12.227-0-0.009-0-0.019-0-0.030 0-6.749 5.471-12.22 12.22-12.22 0.010 0 0.020 0 0.030 0zM753.176 754.046l-118.34 116.598c-5.74 5.628-13.464 8.807-21.498 8.807h-468.38c-16.905 0-30.589-13.662-30.589-30.568v-816.253c0-16.95 13.684-30.59 30.59-30.59h291.461c-12.36 18.848-22.402 39.372-29.796 61.133h-231.12v755.12h406.007v-99.648c0-10.109 8.167-18.34 18.363-18.34h101.259v-280.539c21.231-2.935 41.713-8.276 61.091-15.802v328.276c0.001 8.188-3.222 16.023-9.049 21.806zM697.869-18.972l-108.543 78.879c-3.575 2.604-8.298 2.957-12.272 0.928-3.853-1.971-6.444-5.914-6.444-10.461 0-0 0-0.001 0-0.001l-0-43.965c-43.147 25.292-73.826 69.126-81.153 121.563-2.074 15.053-15.979 25.604-31.008 23.44-15.075-2.074-25.58-15.98-23.484-31.031 6.93-49.746 29.64-93.755 62.945-126.994 20.548-20.57 45.267-36.902 72.7-48.113v-52.572c0-3.223 1.28-6.136 3.488-8.343 0.881-0.883 1.897-1.588 2.956-2.162 3.974-2.032 8.74-1.678 12.316 0.927l108.499 78.836c2.979 2.181 4.893 5.662 4.9 9.591-0 3.739-1.855 7.271-4.9 9.478zM875.448 185.004l45.112 27.058c3.84 2.205 6.046 6.445 5.737 10.903-0.32 4.56-3.208 8.374-7.216 10.026l-123.22 52.741c-1.371 0.61-2.971 0.965-4.655 0.965-2.226 0-4.307-0.622-6.079-1.7-3.216-1.914-5.288-5.222-5.643-9.021l-12.050-133.612c-0.030-0.314-0.047-0.679-0.047-1.048 0-3.254 1.336-6.196 3.488-8.308 1.006-1.145 2.311-2.002 3.794-2.451 1.989-1.567 6.758-1.656 10.598 0.681l37.607 22.426c0.442-49.395-21.011-97.73-61.267-130.878-11.742-9.623-13.463-26.926-3.84-38.669 0.573-0.705 1.235-1.368 1.853-2.073 9.889-9.844 25.822-10.815 36.858-1.767 62.018 50.895 90.313 128.892 78.97 204.727zM616.295 265.472c0.133 4.414-2.163 8.563-6.047 10.725l-38.269 21.5c43.037 25.202 96.14 30.5 145.355 11.342 14.17-5.472 30.061 1.545 35.578 15.715 5.517 14.169-1.457 30.104-15.626 35.576-75.525 29.444-157.937 15.45-218.653-32.663l-45.817 25.778c-1.662 0.947-3.652 1.505-5.773 1.505-2.447 0-4.721-0.743-6.607-2.016-3.644-2.401-5.63-6.726-5.122-11.141l15.56-133.304c0.308-2.605 1.522-5.033 3.397-6.886 0.729-0.794 1.59-1.415 2.539-1.944 3.288-1.852 7.282-2.073 10.704-0.441l121.939 56.014c3.974 1.854 6.622 5.782 6.842 10.24zM616.295 265.472z"  horiz-adv-x="1024" />

    
    <glyph glyph-name="feedbackIcon" unicode="&#58965;" d="M506.361-120.26c-278.522 0-499.883 221.406-499.883 499.883 0 278.52 221.361 499.883 499.883 499.883s499.883-221.362 499.883-499.883c0-278.477-221.361-499.882-499.883-499.882zM506.361 822.391c-242.752 0-435.622-199.949-435.622-435.622 0-235.652 199.971-435.624 435.622-435.624s435.622 199.972 435.622 435.625c0 235.673-192.781 435.622-435.622 435.622zM506.361 267.744c17.13 0 31.065 13.935 31.065 31.066v314.38c0 17.152-13.936 31.043-31.065 31.043-17.13 0-31.065-13.89-31.065-31.044v-314.379c0-17.13 13.935-31.066 31.065-31.066zM475.296 146.057c0-17.13 13.935-31.065 31.065-31.065s31.065 13.935 31.065 31.065v31.509c0 17.13-13.936 30.977-31.065 30.977-17.13 0-31.065-13.846-31.065-30.977v-31.509zM475.296 146.057z"  horiz-adv-x="1024" />

    
    <glyph glyph-name="dealapplyIcon" unicode="&#58966;" d="M962.452 569.71l-142.319 87.52 13.753 25.343c18.366 32.718 43.093 40.332 74.897 21.487l47.427-29.18c31.762-18.841 38.361-47.107 19.997-79.825l-13.755-25.343zM776.602 740.992c0 23.076-38.918 63.328-61.063 63.328h-610.619c-22.142 0-61.062-40.252-61.062-63.328v-728.214c0-23.076 38.92-63.328 61.061-63.328h610.621c22.145 0 61.064 40.252 61.064 63.328v77.78l40.705 70.564v-161.76c0-44.028-45.995-90.62-88.173-90.62h-649.541c-42.22 0-76.447 35.68-76.447 79.708v757.132c0 44.008 45.041 99.446 87.22 99.446h639.723c33.154 0 66.665-0.696 80.46-44.726l-33.948-61.12v1.81zM948.735 544.388l-219.679-405.29-142.32 87.518 219.681 405.29 142.318-87.518zM125.272 391.435c-0 0.002-0 0.005-0 0.007 0 3.202 2.595 5.797 5.797 5.797 0.002 0 0.004-0 0.006-0l455.54 0-45.235-81.419h-410.305c-3.22 0-5.803 2.607-5.803 5.826v69.788zM125.272 228.603c-0 0.002-0 0.004-0 0.006 0 3.202 2.595 5.797 5.797 5.797 0.002 0 0.004-0 0.006-0l365.103 0-45.24-81.415h-319.863c-0-0-0.001-0-0.001-0-3.204 0-5.802 2.598-5.802 5.802 0 0.007 0 0.014 0 0.021l-0 69.789zM131.075 30.865c-3.22 0-5.803 1.312-5.803 2.904v34.903c0 1.59 2.582 2.901 5.803 2.901h417.538l26.635-22.183-2.188 151.98 142.797-87.817-127.49-75.093 9.144-7.595h-466.436zM607.926 641.486h-476.851c-0-0-0.001-0-0.001-0-3.204 0-5.802 2.598-5.802 5.802 0 0.008 0 0.015 0 0.023l-0 69.787c-0 0.003-0 0.006-0 0.009 0 3.202 2.595 5.797 5.797 5.797 0.002 0 0.004-0 0.006-0l476.851 0c3.258 0 5.844-2.604 5.844-5.806v-69.788c0-0.004 0-0.008 0-0.012 0-3.21-2.602-5.812-5.812-5.812-0.011 0-0.023 0-0.034 0zM613.77 484.46c0-3.202-2.586-5.805-5.844-5.805h-476.851c-0.001-0-0.003-0-0.005-0-3.202 0-5.798 2.596-5.798 5.798 0 0.002 0 0.005 0 0.007l-0 69.806c-0 0.002-0 0.005-0 0.008 0 3.202 2.595 5.797 5.797 5.797 0.002 0 0.004-0 0.006-0l476.851 0c3.258 0 5.844-2.603 5.844-5.805v-69.806zM1020.85 500.618l-109.918-202.804-47.626 29.26 109.96 202.824 47.586-29.28z"  horiz-adv-x="1024" />

    
    <glyph glyph-name="shareIcon" unicode="&#58967;" d="M88.916-101.518c-43.54 0-78.988 35.001-78.988 78.094v621.553c0 43.047 35.448 78.071 78.988 78.071h196.016v-59.744h-196.016c-11.041 0-20.026-8.225-20.026-18.327v-621.553c0-10.103 8.986-18.328 20.026-18.328h796.538c11.085 0 20.115 8.225 20.115 18.328v222.971h58.917v-222.971c0-43.093-35.405-78.094-79.032-78.094h-796.538zM424.402 114.034c-0.358 1.698-28.252 175.677 84.263 338.994 78.899 114.526 207.594 193.066 382.868 233.633l-213.673 117.185 29.86 55.877 309.246-169.598-181.087-290.225-52.972 33.974 118.46 189.892c-157.17-37.102-271.785-106.524-340.894-206.522-49.083-70.987-66.47-147.695-72.417-199.548-6.348-55.61-1.43-95.75-0.895-100.131l1.252-10.192-62.672-0.805-1.34 7.467zM433.118 115.688c-1.296 7.018-25.614 174.715 82.833 332.2 86.096 125.052 232.806 206.364 435.751 241.767l7.688-44.857c-190.474-33.191-327.125-108-406.158-222.369-97.897-141.525-75.010-304.596-74.83-306.16l-45.284-0.58zM833.152 412.328l-37.996 24.34 145.548 233.274-250.775 137.548 21.368 40.030 293.064-160.724-171.209-274.468zM833.152 412.328z"  horiz-adv-x="1033" />

    
    <glyph glyph-name="uploadIcon" unicode="&#58968;" d="M899.625 504.98v-504.509h-770.024v504.51h-110.004v-585.654c0-10.89 9.507-19.757 21.11-19.757h947.76c11.656 0 21.165 8.868 21.165 19.757v585.653h-110.007zM282.522 495.004c8.27-7.736 21.7-7.736 29.917 0l147.173 110.878v-504.51h110.004v504.51l147.172-110.852c8.273-7.735 21.647-7.735 29.92 0l67.516 63.162c3.975 3.695 6.231 8.745 6.231 13.967 0 5.247-2.256 10.273-6.23 13.993l-284.625 266.198c-3.976 3.694-9.347 5.789-14.986 5.789s-11.011-2.12-14.988-5.84l-284.622-266.196c-7.95-7.416-7.95-20.546 0-27.96l67.518-63.138z"  horiz-adv-x="1026" />

    
    <glyph glyph-name="auditIcon" unicode="&#58969;" d="M266.756 481.033h474.748c12.953 0 23.51 10.447 23.51 23.334s-10.557 23.267-23.51 23.267h-474.748c-13.131 0-23.689-10.446-23.689-23.267 0-12.842 10.558-23.334 23.689-23.334zM691.465 755.648h-72.395c0.355 3.128 0.798 6.255 0.798 9.428 0 63.080-51.902 114.384-115.827 114.384-63.835 0-115.868-51.303-115.868-114.384 0-3.239 0.487-6.3 0.931-9.428h-72.485c-13.042 0-23.644-10.446-23.644-23.355 0-12.887 10.602-23.267 23.644-23.267h374.848c13.042 0 23.644 10.447 23.644 23.267-0.001 12.842-10.603 23.355-23.645 23.355zM571.425 755.648h-134.679c-0.532 3.128-1.33 6.121-1.33 9.428 0 37.374 30.785 67.783 68.625 67.783 37.93 0 68.583-30.41 68.583-67.783 0-3.284-0.756-6.3-1.199-9.428zM978.479 252.154c-3.194 7.32-6.743 14.417-10.647 21.16v437.13c-0.088 25.73-21.292 46.624-47.243 46.624h-120.085c-13.132 0-23.511-10.448-23.511-23.334s10.379-23.334 23.51-23.334h120.087v-381.68c-14.862 12.045-31.452 21.893-49.774 29.678-24.53 10.426-50.747 15.593-78.562 15.593-28.125 0-54.385-5.168-79.006-15.593-19.030-8.030-36.153-18.41-51.413-31.075h-395.077c-13.131 0-23.689-10.47-23.689-23.311 0-12.865 10.558-23.379 23.689-23.379h353.952c-5.722-8.916-10.736-18.41-15.083-28.479-10.559-24.266-15.838-50.172-15.838-77.586 0-16.459 1.864-32.295 5.59-47.555h-328.623c-13.131 0-23.689-10.469-23.689-23.29s10.558-23.334 23.689-23.334h346.856c9.448-17.433 21.248-33.049 35.266-46.89 18.366-18.098 39.748-32.382 64.367-42.763 24.533-10.38 50.881-15.614 79.006-15.614 27.815 0 54.032 5.234 78.562 15.614 18.323 7.764 34.913 17.658 49.774 29.723v-93.867h-833.047v783.853h121.992c13.042 0 23.6 10.492 23.6 23.379 0 12.864-10.557 23.245-23.6 23.245h-121.992c-25.995 0-47.2-20.894-47.2-46.624v-783.809c0-25.595 21.204-46.534 47.2-46.534h833.137c25.952 0 47.156 20.94 47.156 46.534v149.050c13.308 22.722 22.812 49.337 26.856 77.711-5.65-32.506-0.416-6.555-0.416 21.171 0 27.414-5.234 53.32-15.793 77.586zM912.47 136.861h-147.456v181.747h27.949v-154.952h119.509v-26.795h-0.001zM912.47 136.861z"  horiz-adv-x="1024" />

    
    <glyph glyph-name="lockIcon" unicode="&#58970;" d="M491.867 68.622h77.232c21.345 0 38.617 17.27 38.617 38.615v193.081c0 21.345-17.27 38.618-38.617 38.618h-77.232c-21.345 0-38.617-17.272-38.617-38.618v-193.080c0.001-21.345 17.273-38.616 38.617-38.616zM491.867 281.010c0 10.673 8.637 19.308 19.308 19.308h38.616c10.673 0 19.308-8.635 19.308-19.308v-154.465c0-10.673-8.635-19.308-19.308-19.308h-38.616c-10.672 0-19.308 8.635-19.308 19.308v154.465zM337.403 663.211c0 89.602 98.652 141.493 193.080 139.116 75.159-1.886 154.465-49.514 154.465-139.116v-131.197h77.231v131.197c0 121.090-97.898 216.349-246.366 216.349-148.47 0-255.643-95.258-255.643-216.349v-131.197h77.233v131.197zM105.706 493.4v-231.697c0-222.608 202.056-386.162 424.778-386.162 222.72 0 386.159 163.555 386.159 386.162v231.697h-810.937zM839.412 261.703c0-185.5-123.316-308.93-308.927-308.93-185.577 0-347.546 123.43-347.546 308.93v154.463h656.474v-154.464z"  horiz-adv-x="1024" />

    
    <glyph glyph-name="flowIcon" unicode="&#58971;" d="M709.132 603.49c78.96-78.982 125.739-178.133 140.58-281.508 61.127 149.927 32.224 326.75-87.61 446.605-160.464 160.443-423.012 157.983-586.427-5.453-22.302-22.262-41.448-46.41-57.725-71.828 192.319 99.726 432.44 70.925 591.182-87.816zM1002.551 478.837c-14.841 55.965-39.413 104.82-72.059 147.125 26.758-277.209-122.104-471.249-341.562-531.926-109.135-30.195-219.172-22.712-316.377 14.452 98.312-125.514 266.4-186.026 432.072-140.232 221.753 61.332 355.118 289.934 297.927 510.58zM187.072 450.405c30.174 109.196 93.433 200.867 175.797 267.058-159.48-24.414-298.625-140.703-344.46-306.374-61.332-221.756 67.85-447.917 288.54-505.13 30.010-7.789 60.225-11.93 90.112-12.914-179.446 115.1-270.665 337.943-209.989 557.36z"  horiz-adv-x="1024" />

    
    <glyph glyph-name="overseeIcon" unicode="&#58972;" d="M639.917 618.544h274.16l-313.327 274.161v-195.83c0-29.297 7.918-78.331 39.167-78.331zM561.585 657.709v234.996h-374.257c-31.248 0-56.568-23.695-56.568-52.916v-917.339c0-29.222 7.917-48.059 39.166-48.059h744.151v704.987h-274.16c-62.498 0-78.332 19.735-78.332 78.33zM863.896 78.789c0-12.297-1.798-24.078-4.322-35.571-0.306-3.862-1.262-7.65-3.136-11.245-6.54-21.744-16.945-41.806-31.21-58.75-1.607 8.951-4.972 17.652-11.704 24.576l-30.064 30.33c8.912 14.86 14.344 32.072 14.344 50.66 0 54.753-44.407 99.14-99.14 99.14-44.634 0-81.926-29.681-94.357-70.243l-37.483 5.565-31.21-14.42c0.651 4.895 0.612 10 1.644 14.762-87.778 39.359-158.805 109.39-198.927 196.845-1.070-0.020-2.065-0.326-3.175-0.326l6.847 13.674c-3.825 5.144-6.541 11.11-6.541 17.9l-0.306 2.944c0 17.442 14.726 31.573 32.894 31.573 0.038 0 0.115-0.018 0.115-0.018l0.038 0.018-1.567 5.586c39.243 13.215 67.66 49.875 67.66 93.553 0 54.752-44.407 99.14-99.14 99.14-54.732 0-99.137-44.387-99.137-99.14 0-11.302 2.295-21.973 5.775-32.090l-5.775-0.956c5.852-47.848 14.725-84.357 24.058-113.214-3.75 1.932-7.574 3.73-11.169 5.93 48.995-121.057 140.829-219.085 255.956-278.885l-2.946-4.496s45.86-29.738 126.256-42.493c17.977-18.187 42.915-29.488 70.492-29.488 1.377 0 2.639 0.344 4.016 0.4l7.726-7.973c0.498-0.286 1.11-0.286 1.607-0.613l2.37-1.147c5.202-3.25 8.568-8.165 10.787-13.54l24.095-24.993c2.678-2.716 5.928-4.208 8.988-6.12-10.823-4.19-22.030-7.651-33.848-9.504v-0.996c-8.607-0.42-17.020-1.605-25.741-1.605-292.023 0-528.74 236.716-528.74 528.738 0 6.98 0.956 13.731 1.262 20.635-0.306 4.169-1.261 8.166-1.261 12.411 0 15.32 2.753 29.872 6.654 43.947 2.103 13.502 4.055 27.060 7.076 40.237h10.020c28.84 48.326 81.125 81.048 141.48 81.048 91.26 0 165.232-73.972 165.232-165.232 0-66.474-39.51-123.406-96.118-149.625 34.194-67.126 90.57-121.055 159.493-152.018 29.91 42.438 79.021 70.32 134.9 70.32 91.261 0 165.232-73.972 165.232-165.231z"  horiz-adv-x="1024" />

    
    <glyph glyph-name="undoIcon" unicode="&#58973;" d="M524.43-100.794c-223.834 0-407.833 170.36-429.5 388.485h87.173c21.245-170.3 166.253-302.155 342.328-302.155 190.7 0 345.32 154.597 345.32 345.32 0 190.723-154.62 345.321-345.32 345.321v-129.496l-258.991 172.66 258.99 172.661v-129.493c238.379 0 431.652-193.253 431.652-431.652s-193.272-431.651-431.652-431.651z"  horiz-adv-x="1024" />

    
    <glyph glyph-name="draftIcon" unicode="&#58974;" d="M260.438 532.046h228.87c5.647 0 10.173 3.31 10.173 7.301v35.29c0 4.040-4.527 7.252-10.173 7.252h-228.87c-5.647 0-10.173-3.212-10.173-7.252v-35.29c0-3.99 4.527-7.301 10.173-7.301zM499.481 482.204h-249.216v-49.844h249.217v49.844zM260.438 631.732h228.87c5.647 0 10.173 3.31 10.173 7.301v35.29c0 4.040-4.527 7.252-10.173 7.252h-228.87c-5.647 0-10.173-3.212-10.173-7.252v-35.29c0-3.99 4.527-7.3 10.173-7.3zM250.265 232.987h548.276v49.843h-548.276v-49.843zM748.697 880.948h-557.183c-43.905 0-90.778-58.993-90.778-105.868v-806.106c0-46.874 35.581-84.89 79.535-84.89h676.047c43.905 0 91.752 49.65 91.752 96.475v701.016l-199.373 199.373zM848.384 42.863c0-21.514-34.413-59.092-53.98-59.092h-540.001c-19.568 0-53.98 37.578-53.98 59.092v679.357c0 21.514 34.412 59.043 53.98 59.043h394.607v-99.687c0-51.595 40.74-99.686 85.425-99.686h113.948v-539.026zM848.384 681.575h-71.211c-22.342 0-28.475 24.046-28.475 49.844v49.843h45.706c19.567 0 53.98-37.528 53.98-59.043v-40.644zM787.978 183.143h-527.2c-5.791 0-10.513-3.21-10.513-7.252v-35.287c0-3.992 4.722-7.304 10.514-7.304h527.199c5.841 0 10.563 3.31 10.563 7.304v35.286c0 4.041-4.722 7.252-10.563 7.252z"  horiz-adv-x="1024" />

    
    <glyph glyph-name="evaluateIcon" unicode="&#58975;" d="M892.785 458.424c-16.864 0-29.379-13.712-29.379-30.553v-403.875c0-40.206-31.152-74.465-71.446-74.465h-635.39c-40.206 0-87.068 34.26-87.068 74.465v636.1c0 40.339 46.862 83.251 87.068 83.251h342.146c16.952 0 30.62 12.514 30.62 29.444 0 16.907-13.667 29.377-30.62 29.377h-342.146c-80.411 0-145.912-61.44-145.912-142.073v-636.1c0-80.544 65.5-133.308 145.912-133.308h635.39c80.499 0 130.29 52.764 130.29 133.309v403.874c0 16.84-12.514 30.553-29.465 30.553zM983.933 761.187l-103.663 103.62c-34.080 34.147-93.99 34.147-128.070 0l-84.584-99.493-451.138-431.834-29.732-258.785 14.379-12.492 252.060 34.303 431.346 451.714 99.403 81.143c35.324 35.325 35.324 96.52 0 131.823zM258.637 134.317l7.366 121.15 111.83-111.764-119.196-9.387zM431.707 175.233l-136.77 136.703 403.21 401.256 134.285-134.329-400.725-403.63zM941.243 675.717l-60.086-60.109-146.355 146.31 60.088 60.132c5.68 5.724 13.312 8.83 21.3 8.83 8.165 0 15.71-3.106 21.39-8.83l103.576-103.554c11.893-11.804 11.893-30.953 0.088-42.779zM941.243 675.717z"  horiz-adv-x="1026" />

    
    <glyph glyph-name="placefileIcon" unicode="&#58976;" d="M806.79 462.612c-141.102 0-255.485-114.385-255.485-255.486 0-20.383 2.994-39.958 7.524-58.958h-423.035c-37.232 0-60.032 71.28-67.402 103.484l-67.364 413.858c0 19.038 6.487 110.468 37.732 111.544h283.007c12.553 0 51.165-46.983 66.711-77.075h286.348c37.23 0 67.402-24.72 67.402-55.197l5.605-64.255h117.914c37.196 0 78.612-16.467 78.612-39.305l-20.727-108.129c-35.161 18.233-74.505 29.518-116.843 29.518zM629.915 619.833h-510.97c-31.015 0-42.452-8.598-42.452-33.354l59.302-369.333c0.999-4.261 2.228-7.37 3.416-10.748l63.95 314.252c7.37 24.144 35.773 59.879 73.006 59.879h393.055c0 24.757-8.292 39.304-39.306 39.304zM806.79 423.305c119.375 0 216.181-96.766 216.181-216.18 0-119.374-96.806-216.18-216.18-216.18-119.374 0-216.18 96.806-216.18 216.18 0 119.415 96.806 216.18 216.18 216.18zM806.79 30.252c97.69 0 176.876 79.187 176.876 176.874s-79.188 176.874-176.877 176.874c-97.687 0-176.873-79.188-176.873-176.875s79.186-176.874 176.873-176.874zM826.443 226.778h117.917v-78.61h-117.918v-78.61l-157.22 117.915 157.22 117.917v-78.612z"  horiz-adv-x="1024" />

    
    <glyph glyph-name="canceljpIcon" unicode="&#58977;" d="M506.126-118.328c-277.994 0-498.936 220.941-498.936 498.914s220.942 498.936 498.936 498.936 498.937-220.964 498.937-498.936-220.943-498.914-498.937-498.914zM506.126 822.492c-242.336 0-434.797-199.57-434.797-434.775 0-235.229 199.592-434.82 434.797-434.82s434.797 199.592 434.797 434.82c0 235.206-192.46 434.776-434.797 434.776zM412.576 412.678h282.467c14.219 0 28.482-14.24 28.482-28.504s-14.264-28.504-28.482-28.504h-282.468M481.189 355.67h-163.936c-14.263 0-28.525 14.24-28.525 28.504s14.262 28.504 28.525 28.504h156.804z"  horiz-adv-x="1024" />

    
    <glyph glyph-name="cancelIcon" unicode="&#58978;" d="M782.246 655.473c36.61-36.609 64.906-79.292 84.185-126.795 18.652-45.9 28.084-94.451 28.010-144.264 0.070-49.808-9.358-98.363-28.014-144.26-19.28-47.504-47.57-90.19-84.175-126.794-36.607-36.607-79.295-64.9-126.798-84.18-45.897-18.654-94.451-28.084-144.26-28.014-49.808-0.070-98.365 9.358-144.26 28.015-47.503 19.277-90.192 47.57-126.8 84.18-36.605 36.603-64.895 79.289-84.173 126.793-18.657 45.895-28.085 94.452-28.015 144.26-0.073 49.813 9.359 98.364 28.010 144.264 19.28 47.502 47.576 90.186 84.184 126.794 36.604 36.605 79.287 64.899 126.79 84.178 45.9 18.652 94.45 28.085 144.263 28.012 49.814 0.073 98.363-9.36 144.265-28.012 47.502-19.277 90.185-47.572 126.788-84.177M827.506 700.732c-174.676 174.675-457.949 174.675-632.624-0.002-174.68-174.68-174.681-457.951-0.006-632.627 174.681-174.681 457.952-174.679 632.632 0 174.677 174.676 174.677 457.946-0.004 632.628zM557.128 382.513l159.609 159.607-45.222 45.224-159.609-159.608-159.143 159.144-45.345-45.345 159.143-159.145-156.863-156.862 45.201-45.202 156.864 156.864 157.359-157.357 45.334 45.334-157.327 157.346zM714.465 225.176z"  horiz-adv-x="1024" />

    
    <glyph glyph-name="delIcon" unicode="&#58980;" d="M991.5 703.667h-159.832v127.867c0 35.163-28.77 63.933-63.933 63.933h-506.14c-35.163 0-63.933-28.77-63.933-63.933v-127.867h-165.163c-17.581 0-31.966-14.385-31.966-31.967s14.385-31.966 31.966-31.966h959.002c17.581 0 31.966 14.385 31.966 31.966s-14.385 31.967-31.966 31.967zM261.7 703.667l-0.106 0.107v127.653l0.107 0.107 506.033-0.107v-127.653l-0.107-0.107h-505.926zM863.634 575.8c-17.689 0-31.967-14.278-31.967-31.966v-575.401c0-17.582-14.385-31.967-31.967-31.967h-575.4c-17.582 0-31.967 14.385-31.967 31.967v575.4c0 17.689-14.278 31.967-31.967 31.967s-31.966-14.278-31.966-31.966v-575.401c0-52.852 43.048-95.9 95.9-95.9h575.4c52.852 0 95.9 43.048 95.9 95.9v575.4c0 17.689-14.278 31.967-31.966 31.967zM416.1 96.3v447.534c0 17.581-14.385 31.966-31.967 31.966s-31.967-14.385-31.967-31.966v-447.534c0-17.582 14.386-31.967 31.967-31.967s31.967 14.385 31.967 31.967zM671.834 96.3v447.534c0 17.581-14.386 31.966-31.967 31.966s-31.967-14.385-31.967-31.966v-447.534c0-17.582 14.385-31.967 31.967-31.967s31.967 14.385 31.967 31.967z"  horiz-adv-x="1024" />

    
    <glyph glyph-name="withdrawIcon" unicode="&#58981;" d="M807.659 462.799c-141.433 0-256.087-114.656-256.087-256.089 0-20.43 3-40.052 7.502-59.097h-423.99c-37.322 0-60.175 71.446-67.562 103.729l-67.523 414.832c0 19.082 6.502 110.73 37.82 111.806h283.674c12.58 0 51.287-47.093 66.87-77.254h287.020c37.32 0 67.56-24.78 67.56-55.329l5.618-64.404h118.194c37.282 0 78.795-16.507 78.795-39.399l-20.777-108.381c-35.24 18.271-74.678 29.586-117.114 29.586zM630.367 620.389h-512.173c-31.090 0-42.554-8.617-42.554-33.435l59.444-370.202c1-4.27 2.231-7.387 3.425-10.772l64.098 314.99c7.426 24.2 35.897 60.022 73.18 60.022h393.978c0 24.815-8.31 39.397-39.398 39.397zM807.659 423.399c119.694 0 216.689-96.995 216.689-216.689 0-119.656-96.995-216.689-216.69-216.689s-216.688 97.033-216.688 216.69c0 119.693 96.993 216.688 216.689 216.688zM807.659 29.42c97.917 0 177.29 79.371 177.29 177.29s-79.373 177.291-177.29 177.291c-97.918 0-177.292-79.372-177.292-177.29s79.373-177.29 177.292-177.29zM740.327 301.896l67.332-67.33 67.33 67.33c8.964 8.965 19.353 13.12 23.2 9.272l13.928-13.926c3.847-3.848-0.308-14.237-9.272-23.2l-67.332-67.332 67.332-67.331c8.964-8.963 13.118-19.352 9.272-23.2l-13.927-13.927c-3.848-3.848-14.237 0.308-23.202 9.273l-67.33 67.33-67.33-67.33c-8.966-8.965-19.354-13.12-23.201-9.273l-13.927 13.928c-3.849 3.848 0.307 14.237 9.272 23.2l67.33 67.331-67.33 67.332c-8.965 8.963-13.12 19.352-9.272 23.2l13.926 13.926c3.847 3.849 14.235-0.307 23.2-9.272z"  horiz-adv-x="1024" />

    
    <glyph glyph-name="look" unicode="&#58979;" d="M512 135.614c-265.084 0-479.994 280.835-479.994 280.835s214.911 280.836 479.994 280.836c265.085 0 479.994-280.836 479.994-280.836s-214.91-280.835-479.994-280.835zM512 610.874c-222.672 0-403.194-194.425-403.194-194.425s180.522-194.426 403.194-194.426c222.673 0 403.195 194.426 403.195 194.426s-180.522 194.426-403.195 194.426zM684.798 416.449c0-107.339-77.361-194.426-172.798-194.426-95.435 0-172.798 87.087-172.798 194.426 0 107.423 77.362 194.426 172.798 194.426 95.438 0 172.798-87.002 172.798-194.425zM512 524.463c-53.025 0-95.998-48.352-95.998-108.014 0-59.66 42.974-108.015 95.998-108.015 53.025 0 96 48.355 96 108.015 0 59.662-42.975 108.014-96 108.014z"  horiz-adv-x="1024" />

    
    <glyph glyph-name="resetIcon" unicode="&#58984;" d="M868.815 671.348l-292.762-73.203 25.067 100.241c-112.042 19.28-231.311-13.746-317.83-100.24-141.454-141.454-141.454-370.82 0-512.3 141.504-141.453 370.843-141.453 512.348 0 25.57 25.623 44.928 54.783 61.25 85.080l76.667-76.64c-18.246-28.956-39.572-56.449-64.74-81.618-181.936-181.885-476.77-181.885-658.705 0-181.884 181.884-181.884 476.796 0 658.68 113.207 113.154 269.973 155.503 416.177 127.759l22.945 91.776 219.583-219.536z"  horiz-adv-x="1024" />

    
    <glyph glyph-name="icon_Finance" unicode="&#59637;" d="M884.19 624.094h-733.867c-65.877 0-119.467-53.589-119.467-119.467v-452.267c0-65.877 53.589-119.467 119.467-119.467h733.867c65.86 0 119.467 53.589 119.467 119.467v452.267c0 65.894-53.606 119.467-119.467 119.467zM935.39 52.361c0-28.228-22.972-51.2-51.2-51.2h-733.867c-28.228 0-51.2 22.972-51.2 51.2v452.267c0 28.228 22.972 51.2 51.2 51.2h733.867c28.228 0 51.2-22.972 51.2-51.2v-452.267zM676.096 307.2c14.746 0 26.743 11.981 26.743 26.743s-11.998 26.761-26.743 26.761h-100.096l102.076 102.059c10.445 10.462 10.445 27.392 0 37.837-10.445 10.462-27.375 10.462-37.837 0l-121.532-121.566-121.566 121.566c-10.445 10.462-27.375 10.462-37.837 0-10.445-10.428-10.445-27.375 0-37.837l102.076-102.059h-102.98c-14.78 0-26.743-11.998-26.743-26.761s11.964-26.743 26.743-26.743h132.096v-58.948h-132.096c-14.78 0-26.743-11.981-26.743-26.761 0-14.763 11.964-26.726 26.743-26.726h132.096v-126.037c0-14.763 11.964-26.743 26.743-26.743 14.763 0 26.743 11.981 26.743 26.743v126.037h132.096c14.746 0 26.743 11.964 26.743 26.726 0 14.78-11.998 26.761-26.743 26.761h-132.096v58.948h132.113zM153.515 666.487h727.467c18.842 0 34.133 15.292 34.133 34.133 0 18.859-15.292 34.133-34.133 34.133h-727.467c-18.842 0-34.133-15.275-34.133-34.133 0-18.842 15.292-34.133 34.133-34.133zM244.19 775.987h546.133c18.842 0 34.133 15.292 34.133 34.133 0 18.859-15.292 34.133-34.133 34.133h-546.133c-18.842 0-34.133-15.275-34.133-34.133 0-18.842 15.275-34.133 34.133-34.133z"  horiz-adv-x="1024" />

    
    <glyph glyph-name="switch" unicode="&#58885;" d="M123.008 662.693h1196.253v-139.35h-1196.253zM53.333 593.017c0 0 0 0 0 0 0-38.481 31.194-69.675 69.675-69.675 38.481 0 69.675 31.194 69.675 69.675 0 0 0 0 0 0 0 38.481-31.194 69.675-69.675 69.675-38.481 0-69.675-31.194-69.675-69.675zM1068.743 745.033c12.608-12.608 30.027-20.408 49.267-20.408 38.481 0 69.675 31.194 69.675 69.675 0 19.24-7.799 36.659-20.408 49.267-12.608 12.608-30.027 20.407-49.268 20.407-38.481 0-69.675-31.194-69.675-69.675 0-19.24 7.799-36.659 20.408-49.268zM1319.262 523.343h-28.846l-221.707 221.707 98.59 98.521 201.222-201.222-49.26-119.005zM1389.006 593.017c-0.031-38.457-31.214-69.621-69.675-69.621-38.481 0-69.675 31.194-69.675 69.675 0 38.481 31.194 69.675 69.675 69.675 19.237 0 36.652-7.795 49.261-20.4 12.613-12.609 20.415-30.031 20.415-49.275 0-0.020 0-0.038 0-0.058zM1319.331 105.292h-1196.253v139.35h1196.253zM1249.587 174.967c0-38.481 31.194-69.675 69.675-69.675s69.675 31.194 69.675 69.675c0 38.481-31.194 69.675-69.675 69.675-38.481 0-69.675-31.194-69.675-69.675zM274.998-75.574c12.608-12.608 30.027-20.408 49.268-20.408 38.481 0 69.675 31.194 69.675 69.675 0 19.24-7.799 36.659-20.407 49.268-12.608 12.608-30.027 20.407-49.267 20.407-38.481 0-69.675-31.194-69.675-69.675 0-19.24 7.799-36.659 20.408-49.267zM123.008 244.642h28.846l221.707-221.707-98.521-98.521-201.292 201.222 49.26 119.005zM53.333 174.967c0.071 38.427 31.238 69.55 69.675 69.55 38.481 0 69.675-31.194 69.675-69.675 0-38.481-31.194-69.675-69.675-69.675-19.202 0-36.59 7.767-49.192 20.332-12.653 12.615-20.483 30.065-20.483 49.343 0 0.044 0 0.087 0 0.131z"  horiz-adv-x="1424" />

    
    <glyph glyph-name="loading" unicode="&#59040;" d="M508 601.2c-21.5 0-39 17.5-39 39v150.3c0 21.5 17.5 39 39 39s39-17.5 39-39v-150.3c0-21.5-17.5-39-39-39zM380.4 565.8c-13.5 0-26.6 7-33.8 19.5l-75.1 130.1c-10.8 18.7-4.4 42.5 14.3 53.3 18.7 10.8 42.5 4.4 53.3-14.3l75.1-130.1c10.8-18.7 4.4-42.5-14.3-53.3-6.2-3.5-12.9-5.2-19.5-5.2zM287.5 471.3c-6.6 0-13.3 1.7-19.5 5.2l-130.1 75.1c-18.7 10.8-25 34.6-14.3 53.3 10.8 18.7 34.6 25 53.3 14.3l130.1-75.1c18.7-10.8 25-34.6 14.3-53.3-7.2-12.5-20.3-19.5-33.8-19.5zM254.5 343.1h-150.3c-21.5 0-39 17.5-39 39s17.5 39 39 39h150.3c21.5 0 39-17.5 39-39s-17.5-39-39-39zM159.8 140.4c-13.5 0-26.6 7-33.8 19.5-10.8 18.7-4.4 42.5 14.3 53.3l130.1 75.1c18.7 10.8 42.5 4.4 53.3-14.3 10.8-18.7 4.4-42.5-14.3-53.3l-130.1-75.1c-6.2-3.5-12.9-5.2-19.5-5.2zM309.2-7.4c-6.6 0-13.3 1.7-19.5 5.2-18.7 10.8-25 34.6-14.3 53.3l75.1 130.1c10.8 18.7 34.6 25 53.3 14.3 18.7-10.8 25-34.6 14.3-53.3l-75.1-130.1c-7.2-12.5-20.3-19.5-33.8-19.5zM512.6-60.6c-21.5 0-39 17.5-39 39v150.2c0 21.5 17.5 39 39 39s39-17.5 39-39v-150.3c0-21.5-17.5-38.9-39-38.9zM715.3-5.1c-13.5 0-26.6 7-33.8 19.5l-75.1 130.1c-10.8 18.7-4.4 42.5 14.3 53.3 18.7 10.8 42.5 4.4 53.3-14.3l75.1-130.1c10.8-18.7 4.4-42.5-14.3-53.3-6.1-3.5-12.9-5.2-19.5-5.2zM863 144.4c-6.6 0-13.3 1.7-19.5 5.2l-130.1 75.1c-18.7 10.8-25 34.6-14.3 53.3 10.8 18.7 34.6 25 53.3 14.3l130.1-75.1c18.7-10.8 25-34.6 14.3-53.3-7.2-12.5-20.3-19.5-33.8-19.5zM916.3 347.7h-150.2c-21.5 0-39 17.5-39 39s17.5 39 39 39h150.3c21.5 0 39-17.5 39-39s-17.5-39-39.1-39zM730.7 475.3c-13.5 0-26.6 7-33.8 19.5-10.8 18.7-4.4 42.5 14.3 53.3l130.1 75.1c18.7 10.8 42.5 4.4 53.3-14.3 10.8-18.7 4.4-42.5-14.3-53.3l-130.1-75.1c-6.2-3.5-12.9-5.2-19.5-5.2zM636.1 568.1c-6.6 0-13.3 1.7-19.5 5.2-18.7 10.8-25 34.6-14.3 53.3l75.1 130.1c10.8 18.7 34.6 25 53.3 14.3 18.7-10.8 25-34.6 14.3-53.3l-75.1-130.1c-7.2-12.5-20.3-19.5-33.8-19.5z"  horiz-adv-x="1024" />

    
    <glyph glyph-name="maximize" unicode="&#58886;" d="M82.261 478.754c-26.597 0.078-48.128 21.657-48.128 48.265 0 0 0 0 0 0v280.098c0 34.133 20.343 54.545 54.409 54.545h279.415c25.878-0.986 46.484-22.202 46.484-48.231 0-26.005-20.567-47.207-46.323-48.226l-171.783-0.003 205.961-206.438c18.159-18.159 18.159-47.787 0-66.082-8.535-8.252-20.177-13.337-33.007-13.337-12.83 0-24.471 5.085-33.021 13.349l-205.81 206.494v-172.169c0-26.624-21.641-48.265-48.196-48.265zM893.542 527.019v172.169l-205.892-206.507c-8.535-8.252-20.177-13.337-33.007-13.337s-24.471 5.085-33.021 13.349c-8.401 8.462-13.602 20.138-13.602 33.028 0 12.891 5.2 24.566 13.618 33.044l205.957 206.435h-171.691c-26.656 0-48.265 21.609-48.265 48.265s21.609 48.265 48.265 48.265h279.415c34.202-0.068 54.545-20.48 54.545-54.613v-280.098c0.065-0.94 0.102-2.036 0.102-3.142 0-26.656-21.609-48.265-48.265-48.265-26.656 0-48.265 21.609-48.265 48.265 0 1.106 0.037 2.203 0.11 3.29zM130.458 236.817v-172.169l205.892 206.507c8.535 8.252 20.177 13.337 33.007 13.337s24.471-5.085 33.021-13.349c8.401-8.462 13.602-20.138 13.602-33.028 0-12.891-5.2-24.566-13.618-33.044l-205.957-206.435h171.691c26.656 0 48.265-21.609 48.265-48.265s-21.609-48.265-48.265-48.265h-279.552c-34.065 0.068-54.409 20.48-54.409 54.613v280.098c-0.021 0.541-0.034 1.175-0.034 1.813 0 26.618 21.579 48.196 48.196 48.196 26.618 0 48.196-21.579 48.196-48.196 0-0.638-0.013-1.273-0.037-1.904zM941.739 285.013c26.556 0 48.128-21.572 48.128-48.196v-280.098c0-34.133-20.343-54.545-54.409-54.545h-279.415c-26.656 0-48.265 21.609-48.265 48.265s21.609 48.265 48.265 48.265h171.691l-205.961 206.438c-8.415 8.475-13.615 20.15-13.615 33.041s5.2 24.566 13.618 33.044c8.532 8.249 20.175 13.333 33.004 13.333 12.83 0 24.471-5.085 33.021-13.349l205.878-206.494v172.169c0 0.041 0 0.089 0 0.137 0 26.505 21.487 47.991 47.991 47.991 0.025 0 0.048 0 0.073 0z"  horiz-adv-x="1024" />

    
    <glyph glyph-name="setting" unicode="&#58911;" d="M932 324h-65.46c-11.999-68.474-42.012-128.483-84.937-176.759l69.817-17.821c10.852-10.858 17.562-25.855 17.562-42.42 0-33.143-26.869-60.012-60.012-60.012-16.58 0-31.588 6.723-42.45 17.592l-46.86 46.86c-51.581-37.077-114.865-61.028-183.434-65.777l35.774-61.663c0-33.137-26.863-60-60-60s-60 26.863-60 60v66c-68.568 12.365-128.58 42.691-176.813 85.899l-17.767-71.319c-10.778-10.421-25.481-16.843-41.683-16.843-33.137 0-60 26.863-60 60 0 16.202 6.422 30.904 16.859 41.7l47.144 47.143c-37.607 51.685-61.972 115.209-66.948 184.106l-60.792-36.686c-33.137 0-60 26.863-60 60s26.863 60 60 60h65.4c12.017 68.471 42.043 128.475 84.977 176.743l-69.797 17.777c-10.869 10.862-17.592 25.87-17.592 42.45 0 33.143 26.869 60.012 60.012 60.012 16.565 0 31.562-6.711 42.42-17.562l46.86-46.92c51.456 37.089 114.625 61.041 183.084 65.767l-35.364 61.733c0 33.137 26.863 60 60 60s60-26.863 60-60v-66c68.58-12.382 128.604-42.706 176.864-85.903l17.656 71.383c10.864 10.864 25.872 17.584 42.45 17.584 33.156 0 60.034-26.878 60.034-60.034 0-16.578-6.719-31.586-17.584-42.45l-47.22-47.16c37.607-51.685 61.972-115.209 66.948-184.106l60.852 36.686c33.137 0 60-26.863 60-60s-26.863-60-60-60zM512 624c-132.548 0-240-107.452-240-240s107.452-240 240-240c132.548 0 240 107.452 240 240 0 132.548-107.452 240-240 240z"  horiz-adv-x="1024" />

    
    <glyph glyph-name="news-icon" unicode="&#59009;" d="M930.133 558.933h-55.467l-307.2 285.867c-4.267 25.6-25.6 51.2-55.467 51.2s-51.2-21.333-55.467-51.2l-307.2-285.867h-55.467c-51.2 0-93.867-42.667-93.867-93.867v-494.933c0-55.467 42.667-98.133 93.867-98.133h836.267c51.2 0 93.867 42.667 93.867 93.867v499.2c0 51.2-42.667 93.867-93.867 93.867zM473.6 802.133c8.533-8.533 21.333-17.067 38.4-17.067 12.8 0 29.867 4.267 38.4 17.067l260.267-243.2h-597.333l260.267 243.2zM981.333-29.867c0-29.867-21.333-51.2-51.2-51.2h-836.267c-29.867-4.267-51.2 21.333-51.2 51.2v494.933c0 29.867 21.333 51.2 51.2 51.2h836.267c29.867 0 51.2-21.333 51.2-51.2v-494.933zM857.6 384h-699.733c-12.8 0-21.333-8.533-21.333-21.333s8.533-21.333 21.333-21.333h704c12.8 0 21.333 8.533 21.333 21.333s-12.8 21.333-25.6 21.333zM857.6 238.933h-699.733c-12.8 0-21.333-8.533-21.333-21.333s8.533-21.333 21.333-21.333h704c12.8 0 21.333 8.533 21.333 21.333s-12.8 21.333-25.6 21.333zM558.933 98.133h-401.067c-12.8 0-21.333-8.533-21.333-21.333s8.533-21.333 21.333-21.333h401.067c12.8 0 21.333 8.533 21.333 21.333s-8.533 21.333-21.333 21.333z"  horiz-adv-x="1024" />

    
    <glyph glyph-name="search" unicode="&#58882;" d="M691.881 646.090c-122.036 122.092-319.94 122.092-442.033 0s-122.093-319.997 0-442.033c56.558-56.574 134.7-91.567 221.017-91.567 86.316 0 164.458 34.994 221.016 91.567 56.575 56.558 91.568 134.701 91.568 221.017 0 86.316-34.994 164.458-91.567 221.016zM181.8 136.008c-74.010 73.991-119.787 176.22-119.787 289.14 0 225.802 183.050 408.852 408.852 408.852 225.803 0 408.852-183.050 408.852-408.852 0-112.92-45.778-215.149-119.787-289.139-73.985-73.966-176.183-119.713-289.065-119.713-112.883 0-215.080 45.747-289.065 119.713zM945.517-49.579c-10.099-10.115-24.058-16.372-39.48-16.372s-29.381 6.257-39.479 16.371l-78.903 78.959c-10.097 10.097-16.342 24.045-16.342 39.452 0 30.814 24.98 55.792 55.792 55.792 15.406 0 29.355-6.245 39.452-16.341l78.958-78.903c10.142-10.087 16.418-24.050 16.418-39.479s-6.277-29.393-16.416-39.477z"  horiz-adv-x="1024" />

    
    <glyph glyph-name="index-icon" unicode="&#58892;" d="M1015.397 375.645l-501.053 468.483-501.053-467.107c-9.802-9.138-10.348-24.507-1.188-34.299 9.151-9.786 24.538-10.338 34.333-1.179l467.871 436.154 467.892-437.482c4.694-4.386 10.653-6.554 16.601-6.554 6.475 0 12.954 2.572 17.731 7.69 9.169 9.786 8.665 25.139-1.136 34.292v0zM1015.397 375.645zM862.5 366.022c-13.411 0-24.29-10.873-24.29-24.267v-372.095h-194.331v258.848h-259.104v-258.848h-194.324v372.095c0 13.394-10.868 24.267-24.289 24.267-13.429 0-24.295-10.873-24.295-24.267v-420.627h291.493v258.847h161.94v-258.847h291.486v420.627c0.001 13.394-10.881 24.267-24.286 24.267v0zM862.5 366.022zM692.465 713.847h145.744v-129.421c0-13.414 10.881-24.272 24.29-24.272 13.407 0 24.287 10.858 24.287 24.272v177.953h-194.322c-13.414 0-24.295-10.852-24.295-24.267-0.001-13.41 10.881-24.267 24.295-24.267v0zM692.465 713.847z"  horiz-adv-x="1024" />

    
    <glyph glyph-name="deparmentIcon" unicode="&#58898;" d="M935.034 604.347h-196.504v104.655c0 0.001 0 0.002 0 0.003 0 85.601-69.394 154.995-154.995 154.995-0.31 0-0.621-0.001-0.931-0.003h-393.843c-0.133 0-0.29 0.001-0.447 0.001-85.868 0-155.564-69.234-156.314-154.925l-0.001-760.915c0-24.388 19.77-44.158 44.158-44.158s44.158 19.77 44.158 44.158c0 0 0 0 0 0v760.844c0.243 36.885 30.2 66.692 67.119 66.692 0.466 0 0.932-0.005 1.396-0.014l393.821 0.001c0.131 0.001 0.287 0.002 0.443 0.002 36.915 0 66.869-29.8 67.118-66.656v-760.868c0-24.388 19.77-44.158 44.158-44.158 0 0 0 0 0 0 24.388 0 44.158 19.77 44.158 44.158 0 0 0 0 0 0v567.874h196.504c0.395 0.008 0.86 0.013 1.327 0.013 36.919 0 66.876-29.807 67.118-66.668v-501.217c0-24.388 19.77-44.158 44.158-44.158s44.158 19.77 44.158 44.158v501.195c-0.75 85.762-70.447 154.996-156.314 154.996-0.158 0-0.314 0-0.472-0.001zM231.153 648.505h89.199v-88.316h-89.199zM439.579 648.505h89.199v-88.316h-89.199zM231.153 447.144h89.199v-88.316h-89.199zM439.579 447.144h89.199v-88.316h-89.199zM231.153 245.342h89.199v-88.316h-89.199zM439.579 245.342h89.199v-88.316h-89.199zM231.153 43.539h89.199v-88.316h-89.199zM439.579 43.539h89.199v-88.316h-89.199zM824.197 447.144h89.199v-88.316h-89.199zM824.197 245.342h89.199v-88.316h-89.199zM824.197 43.539h89.199v-88.316h-89.199z"  horiz-adv-x="1130" />

    
    <glyph glyph-name="placefiledIcon" unicode="&#58899;" d="M789.44 591.476h-557.391c-10.987 0-19.883-9.195-19.883-20.481 0-11.289 8.896-20.427 19.883-20.427h557.391c10.989 0 19.883 9.199 19.883 20.427s-8.894 20.481-19.883 20.481zM809.323 695.083h-597.157c-11.047 0-19.947-9.135-19.947-20.42 0-11.287 8.9-20.362 19.947-20.362h597.157c11.049 0 19.947 9.074 19.947 20.421 0 11.227-8.897 20.361-19.947 20.361zM977.963 482.016l-78.524 293.507c-0.378 1.555-0.977 2.924-1.774 4.153-11.249 30.182-29.283 51.681-77.232 51.681l-620.691-1.73c-39.771 0-63.119-16.064-78.164-53.506-0.3-0.837-0.599-1.677-0.779-2.449l-77.87-299.716c-6.029-5.914-9.913-13.378-9.913-22.032v-469.668c0-22.454 26.215-44.188 48.073-44.188h875.915c21.856 0 31.468 21.733 31.468 44.188v469.668c0 13.077-3.405 23.587-10.509 30.093zM749.61 150.417h-477.73v119.431h477.731v-119.431zM689.891 448.997s-42.219-0.541-63.059-0.541h-222.203c-20.841 0-73.028 0.541-73.028 0.541h-238.866l66.165 312.789c8.122 19.887 15.824 26.933 40.902 26.933l620.749 1.789c27.588 0 33.143-7.044 40.847-26.871l67.357-314.639-238.864-0.001zM689.891 448.997z"  horiz-adv-x="1024" />

    
    <glyph glyph-name="excel" unicode="&#58987;" d="M954.666-44c0-28-24-52-56-52h-768c-32 0-56 24-56 52v856c0 28 24 52 56 52h624v-96l88-104h112v-708zM274.667 24h480v480h-480zM754.667 864v-84c0-8 20-108 32-116l168-120v120l-200 200zM754.667 864v-160c0-24 20-40 40-40h160l-200 200zM638.666 388h-64l-60-72-60 72h-64l100-120-100-120h64l60 72 60-72h64l-100 120z"  horiz-adv-x="1024" />

    
    <glyph glyph-name="pdf" unicode="&#58988;" d="M954.666-44c0-28-24-52-56-52h-768c-32 0-56 24-56 52v856c0 28 24 52 56 52h624v-96l88-104h112v-708zM274.667 24h480v480h-480zM754.667 864v-84c0-8 20-108 32-116l168-120v120l-200 200zM754.667 864v-160c0-24 20-40 40-40h160l-200 200zM646.667 164c-28 0-52 12-72 28-40-8-80-20-120-36-32-56-60-84-84-84-4 0-12 0-16 4-12 4-16 16-16 28 0 8 0 32 96 76 20 40 40 80 52 124-12 24-36 84-20 112 8 12 20 16 32 16 8 0 20-4 24-12 12-16 12-56-4-112 16-28 36-56 60-80 20 4 40 8 64 8 48 0 52-24 52-36 4-36-32-36-48-36zM366.666 104c16 4 28 16 36 28-16-8-28-16-36-28zM498.666 404h-8c-4-16 0-36 4-52 12 16 12 32 4 52zM506.666 256c-12-24-20-48-32-68 20 8 44 16 68 20h4c-16 16-28 32-40 48zM642.666 204h-24c8-4 20-8 28-8h20c0 4-4 8-24 8z"  horiz-adv-x="1024" />

    
    <glyph glyph-name="word" unicode="&#58989;" d="M954.666-44c0-28-24-52-56-52h-768c-32 0-56 24-56 52v856c0 28 24 52 56 52h624v-96l88-104h112v-708zM274.667 24h480v480h-480zM754.667 864v-84c0-8 20-108 32-116l168-120v120l-200 200zM754.667 864v-160c0-24 20-40 40-40h160l-200 200zM606.666 124h-52l-32 236-48-236h-52l-48 280h48l32-208 36 208 60-4 24-204 32 208h48z"  horiz-adv-x="1024" />

    
    <glyph glyph-name="repair-icon" unicode="&#58983;" d="M804.133 188.027c-13.673 0-24.61-10.938-24.61-24.61v-183.667c0-20.965-15.951-36.915-36.915-36.915h-633.492c-20.965 0-36.915 15.951-36.915 36.915v806.676c0 20.965 15.951 36.915 36.915 36.915h633.948c20.965 0 36.915-15.951 36.915-36.915v-73.377c0-13.673 10.938-24.61 24.61-24.61s24.61 10.938 24.61 24.61v73.833c0 47.854-37.826 85.681-85.681 85.681h-634.404c-47.854 0-85.681-37.826-85.681-85.681v-805.309c0-47.854 37.826-85.681 85.681-85.681h633.948c47.854 0 85.681 37.826 85.681 85.681v183.667c0 11.849-10.938 22.786-24.61 22.786zM984.156 514.799l-12.305 29.167-106.645-102.999c-9.571-9.571-23.243-14.585-36.915-14.585s-26.89 5.013-36.915 14.585c-9.571 9.571-14.585 21.876-14.585 35.549s5.013 25.521 14.585 34.18l106.645 102.999-30.535 12.305c-25.521 9.571-53.777 15.951-82.035 15.951-57.424 0-110.292-20.965-150.397-60.159-60.159-57.424-78.389-144.471-47.854-220.127l-203.265-196.882c-15.951-15.951-25.521-36.915-25.521-58.793s8.659-42.839 25.521-58.793c15.951-15.951 37.826-24.61 61.069-24.61s44.207 8.659 61.069 24.61l204.176 196.882c24.61-8.659 51.5-13.673 77.021-13.673 57.424 0 110.292 20.965 150.397 60.159 61.069 59.248 79.756 147.205 46.487 224.228zM908.503 321.564c-31.902-30.535-74.745-47.854-119.861-47.854-25.521 0-50.131 5.013-73.377 15.951l-13.673 5.923-226.507-216.48c-15.951-15.951-44.207-15.951-60.159 0-7.29 7.29-12.305 17.318-12.305 28.256 0 10.938 5.013 20.965 12.305 28.256l226.507 217.85-5.923 13.673c-30.535 62.436-17.318 137.182 33.269 183.667 31.902 30.535 74.745 47.854 119.861 47.854 10.938 0 20.965-1.366 31.902-2.277l-57.424-53.777c-18.229-17.318-28.256-40.562-28.256-64.716 0-24.61 9.571-47.854 28.256-64.716 18.229-17.318 41.473-26.89 67.452-26.89s48.764 9.571 67.452 26.89l57.424 55.145c9.116-53.777-7.748-108.923-46.943-146.75zM692.933 701.2c0 13.673-9.571 24.61-24.61 24.61h-486.74c-13.673 0-24.61-10.938-24.61-24.61s10.938-24.61 24.61-24.61h488.109c12.305 0 23.243 10.938 23.243 24.61zM535.243 518.446c0 13.673-9.571 24.61-24.61 24.61h-329.052c-13.673 0-24.61-10.938-24.61-24.61s10.938-24.61 24.61-24.61h329.052c13.216 0.455 24.61 11.394 24.61 24.61zM181.579 359.39c-13.673 0-24.61-10.938-24.61-24.61s10.938-24.61 24.61-24.61h243.37c13.673 0 24.61 10.938 24.61 24.61s-9.571 24.61-24.61 24.61h-243.37z"  horiz-adv-x="1024" />

    
    <glyph glyph-name="orderclassroom-icon" unicode="&#58900;" d="M206.317 183.391h528.087c30.549 0 29.637 44.281 0 44.005h-528.087c-28.381 0.001-29.691-43.201 0-44.005v0zM485.032 359.419c27.922 0 29.659 44.005 0 44.005h-293.381c-32.095 0-31.367-44.005 0-44.005h293.381zM851.757 300.741v-381.395h-572.093v146.69c0 12.999-16.319 29.335-29.338 29.335h-146.69v733.454h220.035c20.244 0 20.244 44.009 0 44.009h-234.704c-12.994 0-29.335-15.1-29.335-28.23v-775.366c0-5.365 1.776-10.207 4.809-14.1 0-0.025 0.050-0.051 0.050-0.099 0.778-1.024 1.631-1.972 2.577-2.847l173.675-170.045c4.881-4.768 11.49-7.188 18.076-6.761h608.317c13.069 0 28.634 16.26 28.634 29.289v396.064c-0.277 19.361-42.859 19.356-44.007 0v0zM235.658-51.316l-102.681 102.684h102.681v-102.684zM863.549 653.408h-135.502v134.78c0 9.234-6.263 16.719-15.494 16.719s-15.492-7.485-15.492-16.719v-150.020c0-7.961 4.338-13.391 11.791-15.075 1.483-0.432 3.054-0.669 4.678-0.669h150.021c9.234 0 16.72 6.261 16.72 15.492-0.004 9.235-7.488 15.495-16.72 15.495l-0.002-0.001M729.001 891.758c128.652 0 232.944-104.292 232.944-232.943 0-128.65-104.292-232.943-232.944-232.943-128.65 0-232.943 104.293-232.943 232.943 0 128.651 104.292 232.943 232.943 232.943v0zM729.001 857.586c-26.849 0-52.876-5.251-77.362-15.606-23.665-10.009-44.925-24.347-63.19-42.611-18.267-18.266-32.604-39.527-42.611-63.194-10.356-24.483-15.609-50.51-15.609-77.361 0-26.849 5.249-52.874 15.609-77.361 10.012-23.668 24.345-44.926 42.611-63.193 18.267-18.267 39.524-32.603 63.194-42.612 24.483-10.357 50.512-15.605 77.361-15.605 26.849 0 52.876 5.25 77.362 15.605 23.666 10.009 44.926 24.347 63.191 42.612 18.267 18.265 32.604 39.526 42.611 63.193 10.355 24.483 15.606 50.51 15.606 77.361s-5.249 52.877-15.606 77.361c-10.007 23.665-24.345 44.927-42.611 63.194-18.265 18.263-39.526 32.603-63.191 42.611-24.487 10.356-50.513 15.606-77.363 15.606v0 0z"  horiz-adv-x="1024" />

    
    <glyph glyph-name="plus" unicode="&#58931;" d="M123.84 425.92h776.32c23.152-0 41.92-18.768 41.92-41.92 0-23.152-18.768-41.92-41.92-41.92h-776.32c-0 0-0 0-0 0-23.152 0-41.92 18.768-41.92 41.92 0 23.152 18.768 41.92 41.92 41.92 0 0 0 0 0 0zM470.080-4.16v776.32c0 23.152 18.768 41.92 41.92 41.92 23.152 0 41.92-18.768 41.92-41.92v-776.32c0-0 0-0 0-0 0-23.152-18.768-41.92-41.92-41.92-23.152 0-41.92 18.768-41.92 41.92 0 0 0 0 0 0z"  horiz-adv-x="1024" />

    
    <glyph glyph-name="minus" unicode="&#58932;" d="M70.361 441.344h883.28c26.341 0 47.696-21.354 47.696-47.696 0-26.341-21.354-47.696-47.696-47.696h-883.28c0 0 0 0 0 0-26.341 0-47.696 21.354-47.696 47.696 0 26.341 21.354 47.696 47.696 47.696 0 0 0 0 0 0z"  horiz-adv-x="1024" />

    
    <glyph glyph-name="icon_Cleared" unicode="&#58897;" d="M572.16-102.802c-14.080 0-30.245 2.853-47.689 11.045l-3.584 1.682-469.87 466.322c-13.863 19.098-23.191 42.333-25.951 67.543-5.757 15.035 2.253 48.864 27.377 76l0.549 0.585 305.518 307.017 3.182 1.646c2.816 1.463 70.107 35.328 119.735-4.754l1.097-0.878 122.843-127.89 149.943 152.613c13.935 11.648 31.432 19.477 50.641 21.664 8.020 3.131 40.678 4.631 78.529-19.397l2.048-1.353 85.138-85.906c4.901-3.95 16.64-14.958 22.967-33.317 6.802-19.566 8.96-51.529-19.383-92.928l-0.951-1.536-1.317-1.317-147.529-154.478 116.151-122.697c3.511-3.511 14.299-15.287 19.822-35.84 5.303-19.858 6.619-52.041-17.408-93.55l-1.499-2.633-299.447-299.886c-1.317-1.243-13.422-13.129-33.719-20.955-11.032-4.307-23.803-6.802-37.157-6.802-0.013 0-0.025 0-0.038 0zM546.67-52.041c38.802-15.945 64.256 8.96 64.475 9.216l295.351 295.717c11.081 20.041 15.214 38.729 11.959 53.979-1.583 8.009-5.476 14.929-10.947 20.228l1.914-2.272-0.146 0.293-146.359 154.587 176.201 184.503c12.581 18.871 17.189 35.73 13.495 48.859-1.908 6.956-6.12 12.731-11.747 16.594l0.812-0.868-0.878 1.207-82.542 83.237c-17.957 10.898-35.474 14.446-52.005 10.679-10.344-2.398-19.279-7.412-26.375-14.31l-152.24-155.894-23.442-22.455-151.991 158.281c-22.857 17.335-57.234 4.645-67.328 0.293l-299.813-301.385c-14.080-15.36-18.176-33.243-12.398-54.638 3.84-14.299 11.081-25.563 13.349-28.891l460.654-456.96zM237.678 674.011l558.446-563.346-31.927-32.11-558.373 563.31 31.854 32.146zM250.331 412.709l31.89-32.11-101.742-102.656-31.854 32.11 101.705 102.656zM502.821 162.011l31.854-32.183-101.742-102.619-31.854 32.11 101.742 102.693zM424.741 335.616l31.854-32.11-147.383-148.699-31.854 32.11 147.383 148.699z"  horiz-adv-x="1024" />

    
    <glyph glyph-name="noticeAccount-icon" unicode="&#58985;" d="M511.057 893.669c-275.2 0-498.294-195.206-498.294-436.004 0-137.621 73.044-260.155 186.86-340.063v-220.523l218.298 132.465c30.205-5.006 61.27-7.887 93.136-7.887 275.2 0 498.295 195.204 498.295 436.007 0 240.798-223.095 436.004-498.294 436.004zM511.057 94.427c-26.249 0-53.582 2.324-81.241 6.909l-26.597 4.407-130.826-79.387v129.072l-30.957 21.733c-99.079 69.561-155.905 171.799-155.905 280.503 0 200.289 190.89 363.235 425.525 363.235s425.525-162.947 425.525-363.235c0-200.291-190.89-363.239-425.526-363.239zM223.933 458.612c0 0 0 0 0 0 0-39.278 31.842-71.119 71.119-71.119 39.278 0 71.119 31.842 71.119 71.119 0 0 0 0 0 0 0 0 0 0 0 0 0 39.278-31.842 71.119-71.119 71.119-39.278 0-71.119-31.842-71.119-71.119 0 0 0 0 0 0zM442.529 458.612c0-39.278 31.842-71.12 71.12-71.12s71.12 31.842 71.12 71.12c0 39.278-31.842 71.12-71.12 71.12-39.278 0-71.12-31.842-71.12-71.12zM661.126 456.283c0 0 0 0 0 0 0-39.278 31.842-71.119 71.12-71.119 39.278 0 71.12 31.842 71.12 71.119 0 0 0 0 0 0 0 0 0 0 0 0 0 39.278-31.842 71.119-71.12 71.119-39.278 0-71.12-31.842-71.12-71.119s0 0 0 0z"  horiz-adv-x="1024" />

    
    <glyph glyph-name="weekcalendar-icon" unicode="&#58990;" d="M950.118-60.348h-872.585c-30.547 0.038-55.296 24.812-55.296 55.364 0 0 0 0 0 0v710.11c0 30.583 24.849 55.433 55.296 55.433h872.585c30.447 0 55.433-24.849 55.433-55.433v-710.11c-0.038-30.586-24.842-55.364-55.433-55.364 0 0 0 0 0 0zM77.534 711.339c-3.402-0.038-6.144-2.805-6.144-6.212 0 0 0 0 0 0v-710.11c0-3.413 2.799-6.281 6.144-6.281h872.585c3.413 0 6.281 2.867 6.281 6.281v710.11c-0.076 3.424-2.851 6.176-6.278 6.212h-872.587zM299.605 597.265c-13.581 0.038-24.576 11.057-24.576 24.644 0 0 0 0 0 0v200.158c0 0 0 0 0 0 0 13.573 11.003 24.576 24.576 24.576 13.573 0 24.576-11.003 24.576-24.576 0 0 0 0 0 0v-200.090c0-0.041 0-0.089 0-0.137 0-13.573-11.003-24.576-24.576-24.576 0 0 0 0 0 0zM722.995 597.265c-13.552 0.078-24.508 11.082-24.508 24.644 0 0 0 0 0 0v200.158c0 13.653 11.059 24.644 24.508 24.644 0 0 0 0 0 0 13.573 0 24.576-11.003 24.576-24.576 0-0.025 0-0.048 0-0.071v-200.086c0-0.041 0-0.089 0-0.137 0-13.573-11.003-24.576-24.576-24.576 0 0 0 0 0 0zM258.508 465.306h82.125v-82.125h-82.125zM258.508 239.548h82.125v-82.193h-82.125zM472.798 465.306h82.125v-82.125h-82.125zM472.798 239.548h82.125v-82.193h-82.125zM687.155 465.306h82.057v-82.125h-82.057zM724.428 127.932c-4.671 0.028-9.031 1.337-12.753 3.593l-54.967 32.589c-7.253 4.361-12.031 12.189-12.031 21.133 0 4.62 1.275 8.942 3.491 12.634 4.267 7.14 12.071 11.92 20.993 11.92 4.654 0 9.005-1.301 12.707-3.559l34.981-20.692 55.296 84.446c4.458 6.722 11.993 11.094 20.548 11.094 13.573 0 24.577-11.004 24.577-24.577 0-5.018-1.504-9.684-4.085-13.573l-68.142-103.879c-4.47-6.742-12.027-11.127-20.607-11.127-0.003 0-0.006 0-0.011 0z"  horiz-adv-x="1024" />

    
    <glyph glyph-name="internalMeetingNotice-icon" unicode="&#58991;" d="M990.452 352.483h-62.856c-17.371 0-31.429 14.087-31.429 31.429 0 17.37 14.056 31.427 31.429 31.427h62.856c17.369 0 31.427-14.056 31.427-31.428 0-17.341-14.057-31.429-31.427-31.429zM864.739 729.618v31.429l62.857 62.854 31.429-31.429v-31.427l-62.858-62.858-31.429 31.43zM723.314 263.018c-4.666-2.762-9.851-4.818-15.715-4.818-17.369 0-31.429 14.088-31.429 31.429 0 17.369 14.058 31.429 31.429 31.429v1.596c35.848 7.274 62.856 38.978 62.856 76.973 0 38.027-27.008 69.701-62.856 76.974v1.597c-17.369 0-31.429 14.087-31.429 31.427 0 17.371 14.058 31.429 31.429 31.429 5.863 0 11.048-2.026 15.716-4.818 62.793-14.363 109.996-69.455 109.996-136.608s-47.205-122.245-109.996-136.608zM581.886-56.079s-29.769-1.166-47.663 11.355l-298.046 208.64h-157.137c-34.711 0-62.856 28.144-62.856 62.856v314.281c0 34.71 28.144 62.854 62.856 62.854h157.137l298.044 208.639c11.050 7.735 22.559 11.356 36.032 11.356 0 0 74.488 4.971 74.488-62.853v-754.272c0.001-34.71-28.142-62.852-62.856-62.852zM581.886 698.191c0 65.464-31.427 31.429-31.427 31.429l-282.85-188.571h-157.139c-17.371 0-31.429-14.056-31.429-31.429v-251.422c0-17.342 14.057-31.429 31.429-31.429h157.138l282.85-188.568s31.427-27.499 31.427 0v659.99zM959.025 6.775v-31.428l-31.429-31.427-62.858 62.853v31.429l31.429 31.428 62.858-62.856z"  horiz-adv-x="1024" />

    
    <glyph glyph-name="meetingnotice-icon" unicode="&#58992;" d="M904.292 94.251l-75.137 132.192v276.275c0 57.606-20.927 118.339-58.926 171.014-38.655 53.587-92.928 95.517-152.813 118.068-0.349 0.131-0.702 0.254-1.056 0.369-1.375 0.444-6.478 2.073-13.976 4.228v9.202c0 49.848-40.554 90.401-90.401 90.401s-90.401-40.554-90.401-90.401v-8.539c-6.984-1.995-11.41-3.415-11.919-3.581-0.263-0.084-0.525-0.175-0.785-0.269-60.8-22.015-115.998-63.901-155.43-117.941-38.713-53.053-60.030-114.333-60.030-172.555v-276.277l-80.404-141.511c-9.674-16.864-9.613-37.862 0.167-54.806 9.721-16.834 27.916-27.292 47.486-27.292h198.692c11.394-73.991 75.494-130.829 152.621-130.829s141.23 56.838 152.621 130.829h198.659c30.287 0 54.926 24.61 54.926 54.858 0 13.731-4.908 26.575-13.903 36.564zM511.985 848.81c23.090 0 42.005-18.204 43.156-41.010-17.737 3.546-38.303 5.767-59.32 6.146 43.674-3.525 42.496-3.436 41.298-3.436-0.993 0-1.972-0.061-2.932-0.18-0.726 0.135-1.582 0.263-2.45 0.396-6.028 0.912-12.861 1.939-20.482 1.939-7.614 0-14.443-1.031-20.47-1.937-0.737-0.11-1.466-0.222-2.183-0.326-0.951 0.135-2.049 0.212-3.165 0.212-1.157 0-2.295-0.083-3.409-0.243-20.386-2.924-38.582-7.181-56.148-12.842 44.351 33.309 63.166 51.282 86.108 51.282zM511.985-80.807c-51.022 0-93.806 35.83-104.585 83.64h209.173c-10.783-47.811-53.565-83.64-104.588-83.64zM863.268 50.021h-702.598c-2.767 0-5.302 1.42-6.618 3.696-1.405 2.432-1.443 5.396-0.054 7.818l83.534 147.013c1.937 3.348 3.080 7.366 3.080 11.65 0 0.002-0 0.004-0 0.007l0 282.515c0 102.123 79.030 207.786 183.905 245.969 3.448 1.090 30.57 9.51 57.927 14.009 1.629-0.18 3.288-0.191 4.957-0.017 3.681 0.374 7.104 0.89 10.414 1.391 5.021 0.757 9.357 1.41 13.431 1.41 4.081 0 8.42-0.655 13.443-1.411 3.306-0.498 6.726-1.015 10.404-1.39 1.51-0.154 3.013-0.16 4.487-0.029 28.393-4.755 57.364-13.82 61.737-15.212 103.026-39.055 180.645-144.159 180.645-244.715v-282.513c0-4.090 1.063-8.106 3.081-11.658l79.664-140.151c2.137-3.719 5.142-6.721 8.749-8.795-3.227 2.129-2.455 0.215-2.455-1.908-0.002-4.301-3.4-7.669-7.739-7.669z"  horiz-adv-x="1024" />

    
    <glyph glyph-name="plus_icon" unicode="&#58993;" d="M448 469.335h-340.813c-35.4 0-64.517-28.652-64.517-64 0-35.594 28.887-64 64.517-64h340.813v-340.808c0-35.4 28.657-64.522 64-64.522 35.589 0 64 28.887 64 64.522v340.808h340.813c35.395 0 64.517 28.662 64.517 64 0 35.594-28.882 64-64.517 64h-340.813v340.813c0 35.4-28.657 64.522-64 64.522-35.594 0-64-28.887-64-64.522v-340.813z"  horiz-adv-x="1024" />

    
    <glyph glyph-name="right_btn2" unicode="&#58994;" d="M514.048 867.328c-269.504 0-488-218.496-488-488s218.496-488 488-488 488 218.496 488 488-218.496 488-488 488zM578.176 51.904h-124.224v124.224h124.224v-124.224zM723.52 442.752c-15.488-24.448-48.704-57.728-99.392-99.968-26.24-21.76-42.56-39.232-48.896-52.544-6.272-13.248-9.152-36.992-8.64-71.168h-112.64c-0.32 16.256-0.448 26.112-0.448 29.632 0 36.544 6.016 66.624 18.112 90.24 12.032 23.552 36.224 50.048 72.512 79.552 36.224 29.504 57.92 48.832 65.024 57.92 11.008 14.464 16.384 30.4 16.384 47.744 0 24.192-9.536 44.864-28.864 62.144-19.392 17.216-45.376 25.792-78.144 25.792-31.552 0-57.92-9.024-79.168-26.944-21.184-17.984-35.84-45.376-43.776-82.304l-114.112 14.208c3.264 52.736 25.664 97.536 67.456 134.4 41.664 36.864 96.448 55.296 164.224 55.296 71.296 0 128.064-18.688 170.24-55.936 42.176-37.312 63.232-80.704 63.232-130.24 0-27.392-7.744-53.312-23.104-77.824z"  horiz-adv-x="1024" />

    
    <glyph glyph-name="zhouli_zuo" unicode="&#58995;" d="M721.063-16.137c9.008 9.014 9.008 23.62 0 32.633a23.265 23.265 0 0 1-2.712 2.284l0.141 0.134-365.495 365.502L718.49 749.912l-0.14 0.135c0.944 0.694 1.855 1.432 2.71 2.284 9.014 9.013 9.014 23.618 0 32.631-9.007 9.013-23.616 9.013-32.624 0-0.85-0.85-1.602-1.77-2.29-2.708l-0.287 0.287L304.05 400.732v-0.006a23 23 0 0 1-6.759-16.31c0-5.904 2.255-11.81 6.76-16.316l381.81-381.814 0.286 0.292a22.93 22.93 0 0 1 2.29-2.714c9.003-9.014 23.618-9.014 32.626-0.001z m0 0"  horiz-adv-x="1024" />

    
    <glyph glyph-name="right_btn3" unicode="&#58996;" d="M511.424 892.608c70.336 0 136.448-13.376 198.464-40.256 62.016-26.816 115.904-63.104 161.6-108.864 45.696-45.76 81.984-99.392 108.864-161.024 26.816-61.632 40.256-127.552 40.256-197.888 0-70.4-13.44-136.512-40.256-198.528-26.88-62.016-63.168-115.904-108.864-161.6-45.76-45.76-99.648-81.984-161.6-108.864-62.016-26.752-128.128-40.256-198.464-40.256-70.272 0-136.192 13.504-197.824 40.256-61.632 26.88-115.264 63.104-161.024 108.864s-82.048 99.648-108.864 161.6c-26.88 62.080-40.256 128.192-40.256 198.592 0 70.336 13.376 136.256 40.256 197.888 26.816 61.632 63.104 115.264 108.864 161.024 45.76 45.696 99.392 82.048 161.024 108.864 61.568 26.816 127.552 40.192 197.824 40.192zM764.288 315.392c22.656 0 43.072 5.888 61.248 17.6 18.112 11.776 27.2 29.248 27.2 52.736 0 22.656-9.088 39.488-27.2 50.496-18.176 10.944-38.592 16.448-61.248 16.448h-501.184c-22.656 0-43.456-5.44-62.336-16.448-18.944-10.944-28.352-27.776-28.352-50.496 0-23.488 9.408-41.024 28.352-52.736 18.88-11.776 39.68-17.6 62.336-17.6h501.184zM764.288 315.392z"  horiz-adv-x="1024" />

    
    <glyph glyph-name="letter_icon" unicode="&#58997;" d="M701.825 382.75l295.995 235.685v-596.519l-295.995 360.834zM32.42 664.32h962.99l-481.49-383.409-481.5 383.409zM28.74 20.356l0.823 598.455 296.443-236.062-297.266-362.393zM513.8 233.21v-0.187l0.12 0.093 0.12-0.093v0.187l164.067 130.648 283.766-345.917h-895.906l283.753 345.918 164.080-130.648z"  horiz-adv-x="1024" />

    
    </font>
</defs>
</svg>
